<svg width="48" height="48" viewBox="0 0 48 48" fill="none" xmlns="http://www.w3.org/2000/svg">
<path d="M36.0514 43.9997C34.3081 43.9997 31.8594 43.3693 28.1926 41.321C23.7337 38.821 20.2847 36.513 15.8499 32.0906C11.574 27.8182 9.49325 25.0521 6.58105 19.7538C3.29109 13.7716 3.85192 10.6359 4.47883 9.29566C5.22541 7.69386 6.32742 6.73581 7.75182 5.78491C8.56087 5.25493 9.41705 4.80063 10.3095 4.42775C10.3988 4.38935 10.4818 4.35275 10.556 4.31971C10.998 4.1206 11.6678 3.81971 12.5162 4.14114C13.0824 4.35364 13.5878 4.78847 14.3791 5.56973C16.0017 7.16975 18.2191 10.7332 19.0372 12.4832C19.5864 13.6627 19.9499 14.4413 19.9507 15.3145C19.9507 16.3368 19.4364 17.1252 18.8121 17.9761C18.6951 18.1359 18.579 18.2886 18.4665 18.4368C17.7869 19.3297 17.6378 19.5878 17.736 20.0485C17.9352 20.9744 19.4203 23.7307 21.861 26.1655C24.3016 28.6004 26.979 29.9914 27.9086 30.1897C28.3891 30.2923 28.6525 30.137 29.5741 29.4334C29.7063 29.3325 29.8421 29.228 29.984 29.1236C30.936 28.4155 31.688 27.9146 32.6864 27.9146H32.6917C33.5607 27.9146 34.3046 28.2914 35.537 28.9129C37.1444 29.7236 40.8157 31.912 42.4259 33.5361C43.2091 34.3254 43.6458 34.829 43.8592 35.3942C44.1807 36.2451 43.878 36.9121 43.6806 37.3585C43.6476 37.4326 43.6109 37.5139 43.5725 37.604C43.1966 38.4947 42.7396 39.3489 42.2071 40.1559C41.2578 41.5755 40.296 42.6746 38.6903 43.422C37.8658 43.812 36.9634 44.0095 36.0514 43.9997Z" fill="#FAFAFA"/>
</svg>
