<svg width="32" height="32" viewBox="0 0 32 32" fill="none" xmlns="http://www.w3.org/2000/svg">
<path fill-rule="evenodd" clip-rule="evenodd" d="M15.9998 29.3334C8.63584 29.3334 2.6665 23.3641 2.6665 16.0001C2.6665 8.63608 8.63584 2.66675 15.9998 2.66675C23.3638 2.66675 29.3332 8.63608 29.3332 16.0001C29.3332 23.3641 23.3638 29.3334 15.9998 29.3334ZM15.9998 27.7334C19.1117 27.7334 22.0961 26.4972 24.2966 24.2968C26.497 22.0964 27.7332 19.112 27.7332 16.0001C27.7332 12.8882 26.497 9.90379 24.2966 7.70336C22.0961 5.50293 19.1117 4.26675 15.9998 4.26675C12.888 4.26675 9.90354 5.50293 7.70312 7.70336C5.50269 9.90379 4.2665 12.8882 4.2665 16.0001C4.2665 19.112 5.50269 22.0964 7.70312 24.2968C9.90354 26.4972 12.888 27.7334 15.9998 27.7334ZM15.1198 8.57475H16.8798L16.7612 17.9881H15.2398L15.1225 8.57475H15.1198ZM15.9998 22.7641C15.8531 22.7659 15.7076 22.7383 15.5717 22.683C15.4358 22.6277 15.3123 22.5457 15.2086 22.442C15.1049 22.3382 15.0229 22.2148 14.9676 22.0789C14.9123 21.943 14.8847 21.7974 14.8865 21.6507C14.8838 21.5038 14.9107 21.3578 14.9657 21.2215C15.0207 21.0852 15.1026 20.9614 15.2065 20.8575C15.3105 20.7535 15.4343 20.6716 15.5706 20.6166C15.7069 20.5616 15.8529 20.5347 15.9998 20.5374C16.6345 20.5374 17.1132 21.0174 17.1132 21.6507C17.1159 21.7977 17.0889 21.9437 17.034 22.08C16.979 22.2163 16.8971 22.3401 16.7931 22.444C16.6892 22.548 16.5654 22.6299 16.4291 22.6849C16.2928 22.7399 16.1468 22.7668 15.9998 22.7641Z" fill="#1A2433"/>
</svg>
