<svg width="16" height="16" viewBox="0 0 16 16" fill="none" xmlns="http://www.w3.org/2000/svg">
<g id="New Text Document 1">
<g id="Group">
<path id="Vector" d="M11.332 1.33398H4.66536C2.82536 1.33398 1.33203 2.82732 1.33203 4.66732V11.334C1.33203 13.174 2.82536 14.6673 4.66536 14.6673H11.332C13.172 14.6673 14.6654 13.174 14.6654 11.334V4.66732C14.6654 2.82732 13.172 1.33398 11.332 1.33398ZM7.9987 11.334C6.1587 11.334 4.66536 9.84065 4.66536 8.00065C4.66536 6.16065 6.1587 4.66732 7.9987 4.66732C9.8387 4.66732 11.332 6.16065 11.332 8.00065C11.332 9.84065 9.8387 11.334 7.9987 11.334ZM11.5654 5.08065C11.1987 5.08065 10.8987 4.78065 10.8987 4.41398C10.8987 4.04732 11.1987 3.74732 11.5654 3.74732C11.932 3.74732 12.232 4.04732 12.232 4.41398C12.232 4.78065 11.932 5.08065 11.5654 5.08065Z" fill="#8AA1C4"/>
<path id="Vector_2" d="M8 10C9.10457 10 10 9.10457 10 8C10 6.89543 9.10457 6 8 6C6.89543 6 6 6.89543 6 8C6 9.10457 6.89543 10 8 10Z" fill="#8AA1C4"/>
</g>
</g>
</svg>
