<svg width="16" height="16" viewBox="0 0 16 16" fill="none" xmlns="http://www.w3.org/2000/svg">
<g id="ri:linkedin-fill">
<path id="Vector" d="M4.6276 3.33302C4.62743 3.68665 4.48678 4.02571 4.23661 4.27564C3.98643 4.52556 3.64723 4.66587 3.2936 4.66569C2.93998 4.66551 2.60091 4.52487 2.35099 4.27469C2.10107 4.02452 1.96076 3.68531 1.96094 3.33169C1.96111 2.97807 2.10176 2.639 2.35193 2.38908C2.60211 2.13915 2.94132 1.99885 3.29494 1.99902C3.64856 1.9992 3.98763 2.13985 4.23755 2.39002C4.48747 2.64019 4.62778 2.9794 4.6276 3.33302ZM4.6676 5.65302H2.00094V13.9997H4.6676V5.65302ZM8.88094 5.65302H6.2276V13.9997H8.85427V9.61969C8.85427 7.17969 12.0343 6.95302 12.0343 9.61969V13.9997H14.6676V8.71302C14.6676 4.59969 9.96094 4.75302 8.85427 6.77302L8.88094 5.65302Z" fill="#8AA1C4"/>
</g>
</svg>
