<svg width="16" height="16" viewBox="0 0 16 16" fill="none" xmlns="http://www.w3.org/2000/svg">
<g id="jam:pinterest">
<path id="Vector" d="M7.10217 10.1586C6.76032 12.0003 6.34415 13.7663 5.10917 14.6884C4.72881 11.905 5.66923 9.81403 6.10567 7.59471C5.36116 6.30433 6.19552 3.70667 7.7656 4.34646C9.69779 5.1342 6.09215 9.14452 8.5128 9.64581C11.0402 10.1687 12.0725 5.13082 10.5051 3.49183C8.24054 1.12658 3.91337 3.43846 4.44573 6.82521C4.57545 7.65349 5.40575 7.90481 4.77745 9.04791C3.3283 8.71619 2.89592 7.53931 2.952 5.96991C3.04118 3.40265 5.19294 1.60423 7.35078 1.35561C10.0802 1.04078 12.6414 2.38724 12.9947 5.03083C13.3933 8.01425 11.7631 11.2463 8.8452 11.0132C8.05408 10.9504 7.72168 10.5471 7.10217 10.1586Z" fill="#8AA1C4"/>
</g>
</svg>
