<svg width="24" height="24" viewBox="0 0 24 24" fill="none" xmlns="http://www.w3.org/2000/svg">
<g id="icon-park-outline:telegram">
<path id="Vector" d="M19.7101 3.65449C19.7101 3.65449 21.6526 2.89699 21.4901 4.73649C21.4366 5.49399 20.9511 8.14549 20.5731 11.013L19.2781 19.508C19.2781 19.508 19.1701 20.7525 18.1986 20.969C17.2276 21.185 15.7706 20.2115 15.5006 19.995C15.2846 19.8325 11.4536 17.3975 10.1046 16.2075C9.72665 15.8825 9.29465 15.2335 10.1586 14.476L15.8246 9.06499C16.4721 8.41499 17.1196 6.89999 14.4216 8.73999L6.86665 13.88C6.86665 13.88 6.00315 14.4215 4.38465 13.9345L0.876647 12.852C0.876647 12.852 -0.418353 12.0405 1.79415 11.229C7.19065 8.68599 13.8281 6.08899 19.7096 3.65399" fill="#FAFAFA"/>
</g>
</svg>
