<svg width="47" height="32" viewBox="0 0 47 32" fill="none" xmlns="http://www.w3.org/2000/svg">
<g id="Payment Method/Bitcoin">
<rect id="BASE" x="0.5" y="0.5" width="46" height="31" rx="3.5" fill="#FAFAFA" stroke="#FAFAFA"/>
<path id="Bitcoin" fill-rule="evenodd" clip-rule="evenodd" d="M34.4135 16.0858C34.4135 22.0244 29.5651 26.8386 23.5844 26.8386C17.6037 26.8386 12.7554 22.0244 12.7554 16.0858C12.7554 10.1472 17.6037 5.33301 23.5844 5.33301C29.5651 5.33301 34.4135 10.1472 34.4135 16.0858ZM26.1861 12.0908C27.6924 12.6044 28.7943 13.3735 28.5782 14.8048C28.4211 15.853 27.8338 16.3599 27.0534 16.5374C28.1241 17.0886 28.489 18.1349 28.1499 19.4C27.5062 21.2206 25.976 21.3739 23.9408 20.9934L23.4466 22.9504L22.2536 22.656L22.741 20.7251C22.4317 20.6491 22.1156 20.5678 21.79 20.4811L21.3006 22.4213L20.109 22.1269L20.6025 20.1658L18.1995 19.5661L18.7923 18.2147C18.7923 18.2147 19.6719 18.4453 19.6596 18.4285C19.9975 18.5112 20.1477 18.2934 20.2068 18.1489L21.546 12.837C21.5609 12.5862 21.4732 12.2703 20.9899 12.1506C21.0083 12.1378 20.1232 11.9375 20.1232 11.9375L20.4407 10.6769L22.8471 11.2665L23.3365 9.3276L24.5288 9.62206L24.0496 11.5227C24.3704 11.5946 24.6926 11.6679 25.006 11.7452L25.4818 9.8567L26.6748 10.1512L26.1861 12.0908ZM23.3315 15.3251C24.1442 15.5391 25.9125 16.0046 26.2207 14.784C26.5352 13.5352 24.8172 13.1581 23.976 12.9734C23.8807 12.9525 23.7966 12.934 23.728 12.917L23.1339 15.2741C23.1905 15.288 23.2569 15.3055 23.3314 15.3251L23.3315 15.3251ZM22.4108 19.1201C23.3841 19.3747 25.5129 19.9315 25.8516 18.5865C26.1983 17.2114 24.1343 16.7533 23.1273 16.5298L23.1271 16.5298C23.0147 16.5048 22.9154 16.4828 22.8341 16.4627L22.1788 19.0605C22.2454 19.0769 22.3234 19.0973 22.4107 19.1201L22.4108 19.1201Z" fill="#F7931A"/>
</g>
</svg>
