<svg width="47" height="32" viewBox="0 0 47 32" fill="none" xmlns="http://www.w3.org/2000/svg">
<rect x="0.5" y="0.5" width="46" height="31" rx="3.5" fill="#FAFAFA" stroke="#FAFAFA"/>
<path fill-rule="evenodd" clip-rule="evenodd" d="M23.8357 22.8762C22.2355 24.2473 20.1599 25.075 17.8919 25.075C12.8311 25.075 8.72852 20.9542 8.72852 15.871C8.72852 10.7878 12.8311 6.66699 17.8919 6.66699C20.1599 6.66699 22.2355 7.49466 23.8357 8.8657C25.4358 7.49466 27.5114 6.66699 29.7794 6.66699C34.8402 6.66699 38.9428 10.7878 38.9428 15.871C38.9428 20.9542 34.8402 25.075 29.7794 25.075C27.5114 25.075 25.4358 24.2473 23.8357 22.8762Z" fill="#ED0006"/>
<path fill-rule="evenodd" clip-rule="evenodd" d="M23.8354 22.8762C25.8057 21.1881 27.055 18.6761 27.055 15.871C27.055 13.0659 25.8057 10.5539 23.8354 8.8657C25.4356 7.49466 27.5112 6.66699 29.7792 6.66699C34.84 6.66699 38.9426 10.7878 38.9426 15.871C38.9426 20.9542 34.84 25.075 29.7792 25.075C27.5112 25.075 25.4356 24.2473 23.8354 22.8762Z" fill="#F9A000"/>
<path fill-rule="evenodd" clip-rule="evenodd" d="M23.8357 8.86621C25.8059 10.5544 27.0552 13.0664 27.0552 15.8715C27.0552 18.6765 25.8059 21.1885 23.8357 22.8767C21.8655 21.1885 20.6162 18.6765 20.6162 15.8715C20.6162 13.0664 21.8655 10.5544 23.8357 8.86621Z" fill="#FF5E00"/>
</svg>
