<svg width="46" height="32" viewBox="0 0 46 32" fill="none" xmlns="http://www.w3.org/2000/svg">
<g id="Payment Method/Qiwi">
<rect id="BASE" x="0.5" y="0.5" width="45" height="31" rx="3.5" fill="#FAFAFA" stroke="#FAFAFA"/>
<path id="Qiwi" fill-rule="evenodd" clip-rule="evenodd" d="M13.1431 15.4231C13.1431 20.5858 17.2933 24.7961 22.4316 24.7961C23.0622 24.7961 23.6929 24.7401 24.4176 24.6757C25.2257 24.604 26.1507 24.5218 27.3229 24.4954C29.1015 24.4954 31.0284 25.147 33.1529 27.0517C33.3505 27.2521 33.6469 27.0015 33.4493 26.7509C31.3248 24.0944 29.398 23.5932 27.4711 23.1421C25.0995 22.5907 23.8644 21.2875 23.0245 19.7838C22.8762 19.4831 22.7774 19.5332 22.7774 19.9342C22.728 20.5357 22.7774 21.087 22.8762 21.6384H22.5798C19.2201 21.6384 16.4533 18.8315 16.4533 15.4231C16.4533 12.0148 19.2201 9.20787 22.5798 9.20787C25.9395 9.20787 28.7063 12.0148 28.7063 15.4231C28.7063 15.6236 28.7063 15.8742 28.6568 16.1248C28.1628 16.0246 27.3229 16.0246 26.6806 16.0747C26.4335 16.0747 26.4335 16.175 26.6312 16.2251C28.6074 16.6261 29.9908 17.8791 30.3367 20.1848C30.3367 20.2851 30.3861 20.2851 30.4355 20.2349C31.226 18.8315 31.7201 17.1774 31.7201 15.4231C31.7201 10.2103 27.5699 6 22.4316 6C17.2933 6 13.1431 10.2605 13.1431 15.4231ZM29.1509 19.2826C29.4967 19.433 29.6449 19.9342 29.6449 20.1848C29.6943 20.5858 29.5955 20.7863 29.4473 20.7863C29.2991 20.7863 29.1014 20.6359 28.9038 20.2851C28.7062 19.9342 28.6074 19.5833 28.7062 19.3828C28.8544 19.2826 29.0026 19.2325 29.1509 19.2826ZM27.1252 20.8364C27.3228 20.8364 27.5698 20.9367 27.8169 21.1372C28.2121 21.488 28.3604 21.889 28.1627 22.1897C28.0639 22.3401 27.8169 22.4404 27.6192 22.4404C27.3722 22.4404 27.1252 22.3401 26.977 22.1897C26.5817 21.8389 26.4829 21.3377 26.7299 21.0369C26.7793 20.9367 26.9276 20.8364 27.1252 20.8364Z" fill="#F28A1A"/>
</g>
</svg>
