<svg width="47" height="32" viewBox="0 0 47 32" fill="none" xmlns="http://www.w3.org/2000/svg">
<g id="Payment Method/Visa">
<rect id="BASE" x="0.5" y="0.5" width="46" height="31" rx="3.5" fill="#FAFAFA" stroke="#FAFAFA"/>
<path id="visa-logo" fill-rule="evenodd" clip-rule="evenodd" d="M14.2683 21.6773H11.421L9.28591 13.5895C9.18457 13.2175 8.96939 12.8886 8.65287 12.7335C7.86296 12.344 6.99253 12.0339 6.04297 11.8776V11.5662H10.6297C11.2628 11.5662 11.7375 12.0339 11.8167 12.5772L12.9245 18.4112L15.7704 11.5662H18.5386L14.2683 21.6773ZM20.1212 21.6773H17.4321L19.6464 11.5662H22.3354L20.1212 21.6773ZM25.8143 14.3673C25.8935 13.8227 26.3683 13.5113 26.9222 13.5113C27.7926 13.4331 28.7408 13.5895 29.5321 13.9777L30.0068 11.8008C29.2155 11.4894 28.3451 11.333 27.5552 11.333C24.9453 11.333 23.0462 12.7336 23.0462 14.6773C23.0462 16.1561 24.3914 16.9325 25.341 17.4002C26.3683 17.8666 26.7639 18.178 26.6848 18.6444C26.6848 19.344 25.8935 19.6554 25.1036 19.6554C24.154 19.6554 23.2044 19.4222 22.3354 19.0326L21.8606 21.2109C22.8102 21.5992 23.8375 21.7555 24.787 21.7555C27.7135 21.8324 29.5321 20.4332 29.5321 18.333C29.5321 15.6883 25.8143 15.5333 25.8143 14.3673ZM38.943 21.6773L36.8078 11.5662H34.5145C34.0397 11.5662 33.5649 11.8776 33.4067 12.344L29.4529 21.6773H32.2211L32.7736 20.2H36.1748L36.4913 21.6773H38.943ZM34.9101 14.2891L35.7 18.0998H33.4858L34.9101 14.2891Z" fill="#172B85"/>
</g>
</svg>
