<svg width="47" height="32" viewBox="0 0 47 32" fill="none" xmlns="http://www.w3.org/2000/svg">
<g id="Payment Method/Yandex">
<rect id="BASE" x="0.5" y="0.5" width="46" height="31" rx="3.5" fill="#FAFAFA" stroke="#FAFAFA"/>
<path id="Yandex" d="M32.9001 14.3718C32.8032 13.7945 32.2701 13.4096 31.5433 13.4096C31.301 13.4096 31.1072 13.4096 30.8649 13.4096C30.4288 13.3615 30.3319 13.5058 30.3319 13.8426C30.3319 15.5265 30.3319 17.1624 30.3319 18.8463C30.3319 19.7124 29.4597 20.6265 28.4421 20.819C25.2439 21.5407 22.0458 22.2142 18.8476 22.9359C18.5085 23.0322 18.1208 23.0322 17.7332 23.0322C17.5878 23.0322 17.3455 22.9359 17.297 22.7916C17.2486 22.6954 17.394 22.5029 17.4909 22.4067C17.6362 22.3105 17.8301 22.2142 18.0239 22.118C18.6054 21.9256 19.2353 21.7331 19.8168 21.5407C22.1912 20.7709 24.5655 20.001 26.9399 19.1831C28.006 18.8463 28.5874 18.1246 28.5874 17.2105C28.6359 14.3237 28.5874 11.3888 28.5874 8.50204C28.5874 8.02091 28.3451 7.63601 27.8121 7.44356C27.1822 7.203 26.6007 7.39544 26.0677 7.63601C22.6757 9.22374 19.3322 10.8115 15.9403 12.3992C14.9711 12.8803 14.3896 13.5539 14.3896 14.5162C14.3896 17.2586 14.3896 20.001 14.3896 22.7435C14.3896 22.8878 14.3896 23.0322 14.4381 23.1284C14.7773 24.0425 15.6495 24.6199 16.8125 24.6199C19.1869 24.6199 21.5612 24.6199 23.9356 24.6199C26.31 24.6199 28.6359 24.6199 31.0103 24.6199C31.5433 24.6199 31.9794 24.5237 32.367 24.1869C32.8516 23.802 32.8516 23.2727 32.8516 22.7916C32.8516 20.4245 32.9001 14.3718 32.9001 14.3718ZM23.0149 13.5058C23.2572 12.8803 23.7902 12.4954 24.5655 12.3992C25.0986 12.3511 25.5347 12.6398 25.6316 13.1209C25.7285 13.8426 24.8563 14.7086 23.9356 14.7086C23.2087 14.7086 22.7726 14.1794 23.0149 13.5058Z" fill="#FD6727"/>
</g>
</svg>
