<svg width="228" height="57" viewBox="0 0 228 57" fill="none" xmlns="http://www.w3.org/2000/svg">
<path d="M227.028 25.4267L201.302 25.4564L201.304 27.0796L227.03 27.0499L227.028 25.4267Z" fill="#8AA1C4"/>
<path d="M21.5794 25.7846L0 25.8097L0.0017487 27.171L21.5812 27.1459L21.5794 25.7846Z" fill="#8AA1C4"/>
<path d="M3.6951 21.8091C3.05428 21.8091 2.49289 21.6846 2.00544 21.4357C1.52072 21.1868 1.14281 20.8445 0.874432 20.4089C0.606058 19.9733 0.474609 19.4754 0.474609 18.9102C0.474609 18.3449 0.603319 17.8471 0.863477 17.4114C1.12364 16.9758 1.47964 16.6361 1.93697 16.3898C2.39157 16.1435 2.90641 16.0216 3.47875 16.0216C4.0511 16.0216 4.57142 16.1435 5.01506 16.3846C5.4587 16.6284 5.80649 16.968 6.06117 17.4063C6.31311 17.8445 6.43908 18.3579 6.43908 18.9413C6.43908 18.9854 6.43908 19.0346 6.43361 19.0917C6.43087 19.1487 6.42539 19.2032 6.41717 19.2524H1.32081V18.5134H5.85031L5.40941 18.7701C5.41762 18.4071 5.3382 18.083 5.17115 17.7978C5.0041 17.5126 4.77681 17.2896 4.48652 17.1288C4.19624 16.968 3.85941 16.8877 3.47601 16.8877C3.09262 16.8877 2.764 16.968 2.47098 17.1288C2.17796 17.2896 1.94793 17.5152 1.78088 17.803C1.61383 18.0908 1.53167 18.4227 1.53167 18.7935V18.9646C1.53167 19.3432 1.62478 19.6803 1.80826 19.9759C1.99174 20.2715 2.2519 20.5022 2.58326 20.6656C2.91462 20.829 3.29527 20.9119 3.72522 20.9119C4.07849 20.9119 4.40163 20.8549 4.69191 20.7408C4.98219 20.6267 5.23688 20.4556 5.45596 20.2274L6.05569 20.8912C5.78458 21.192 5.44774 21.4202 5.04518 21.5757C4.64262 21.7339 4.19077 21.8117 3.6951 21.8117V21.8091Z" fill="#8AA1C4"/>
<path d="M9.65823 21.8091C9.15982 21.8091 8.6888 21.7443 8.23968 21.6172C7.79057 21.4876 7.44004 21.332 7.18262 21.1453L7.63447 20.3311C7.88915 20.4945 8.20682 20.6345 8.582 20.7486C8.95991 20.8627 9.3433 20.9197 9.73491 20.9197C10.2388 20.9197 10.603 20.8523 10.8248 20.7175C11.0467 20.5827 11.1589 20.3934 11.1589 20.1496C11.1589 19.9707 11.0905 19.8333 10.9563 19.7322C10.8194 19.6336 10.6414 19.5584 10.4195 19.5066C10.1977 19.4573 9.95125 19.4132 9.68014 19.3717C9.40902 19.3328 9.13791 19.2836 8.8668 19.2214C8.59569 19.1617 8.34648 19.0761 8.12192 18.9646C7.89463 18.8531 7.71389 18.7002 7.5797 18.5057C7.44277 18.3086 7.37705 18.0467 7.37705 17.72C7.37705 17.3933 7.47837 17.077 7.68102 16.8203C7.88367 16.5636 8.17122 16.3665 8.54639 16.2265C8.91883 16.0865 9.36247 16.019 9.87457 16.019C10.2662 16.019 10.6633 16.0631 11.0658 16.1539C11.4684 16.242 11.797 16.3691 12.0544 16.5324L11.5916 17.3466C11.3205 17.1755 11.0384 17.0588 10.7454 16.994C10.4524 16.9292 10.1566 16.8981 9.86362 16.8981C9.38985 16.8981 9.03385 16.9707 8.80108 17.1185C8.5683 17.2637 8.45055 17.453 8.45055 17.6811C8.45055 17.873 8.51901 18.0208 8.65867 18.1245C8.79834 18.2282 8.97908 18.3086 9.2009 18.3657C9.42272 18.4227 9.66918 18.472 9.94029 18.5109C10.2114 18.5498 10.4825 18.599 10.7536 18.6613C11.0247 18.7209 11.2712 18.8065 11.493 18.9128C11.7148 19.0191 11.8956 19.1695 12.0353 19.3614C12.1749 19.5532 12.2434 19.81 12.2434 20.1315C12.2434 20.4737 12.1393 20.7694 11.9257 21.0183C11.7148 21.2672 11.4164 21.4617 11.033 21.6017C10.6496 21.7417 10.1895 21.8091 9.65549 21.8091H9.65823Z" fill="#8AA1C4"/>
<path d="M12.7446 16.9188V16.0735H16.5621V16.9188H12.7446ZM15.6584 21.8091C15.0559 21.8091 14.5876 21.6562 14.2563 21.3502C13.9249 21.0442 13.7579 20.606 13.7579 20.0356V14.8367H14.8423V19.9941C14.8423 20.3 14.9217 20.536 15.0861 20.6994C15.2476 20.8627 15.4804 20.9457 15.7816 20.9457C16.1212 20.9457 16.4033 20.8575 16.6278 20.6786L16.9674 21.4176C16.8004 21.5524 16.6032 21.6536 16.3732 21.7184C16.1431 21.7832 15.9049 21.8143 15.6557 21.8143L15.6584 21.8091Z" fill="#8AA1C4"/>
<path d="M18.6523 21.8092C18.4415 21.8092 18.2607 21.7392 18.1101 21.6018C17.9595 21.4618 17.8828 21.2855 17.8828 21.0728C17.8828 20.8602 17.9595 20.6839 18.1101 20.5491C18.2607 20.4142 18.4415 20.3468 18.6523 20.3468C18.8632 20.3468 19.0303 20.4142 19.1781 20.5491C19.326 20.6839 19.3972 20.8602 19.3972 21.0728C19.3972 21.2855 19.3233 21.4644 19.1781 21.6018C19.0303 21.7418 18.855 21.8092 18.6523 21.8092Z" fill="#8AA1C4"/>
<path d="M200.945 21.6887V20.9601L204.165 18.0171C204.45 17.7604 204.663 17.5348 204.803 17.3377C204.943 17.1406 205.036 16.9591 205.085 16.7932C205.134 16.6246 205.159 16.4639 205.159 16.3057C205.159 15.9194 205.017 15.6186 204.729 15.3956C204.442 15.1752 204.025 15.0637 203.475 15.0637C203.053 15.0637 202.673 15.1285 202.333 15.2607C201.993 15.393 201.7 15.5978 201.451 15.8753L200.682 15.2452C200.983 14.8822 201.388 14.6021 201.898 14.4051C202.407 14.208 202.966 14.1121 203.576 14.1121C204.127 14.1121 204.603 14.195 205.011 14.3636C205.419 14.5321 205.731 14.7707 205.953 15.0844C206.175 15.3982 206.287 15.769 206.287 16.1968C206.287 16.4405 206.255 16.6791 206.186 16.9125C206.118 17.1484 205.992 17.3973 205.803 17.6618C205.614 17.9263 205.343 18.2219 204.989 18.5486L202.119 21.1701L201.848 20.7526H206.627V21.6835H200.945V21.6887Z" fill="#8AA1C4"/>
<path d="M210.773 21.7742C210.157 21.7742 209.604 21.6238 209.119 21.3256C208.634 21.0248 208.248 20.5918 207.966 20.0213C207.684 19.4509 207.542 18.7586 207.542 17.947C207.542 17.1354 207.684 16.443 207.966 15.8726C208.248 15.3021 208.631 14.8665 209.119 14.5683C209.604 14.2676 210.157 14.1198 210.773 14.1198C211.389 14.1198 211.934 14.2701 212.422 14.5683C212.909 14.8665 213.295 15.3021 213.574 15.8726C213.854 16.443 213.993 17.1354 213.993 17.947C213.993 18.7586 213.854 19.4509 213.574 20.0213C213.295 20.5918 212.912 21.0274 212.422 21.3256C211.931 21.6238 211.384 21.7742 210.773 21.7742ZM210.773 20.8226C211.186 20.8226 211.551 20.7162 211.863 20.501C212.175 20.2858 212.422 19.9669 212.597 19.539C212.775 19.1112 212.862 18.5796 212.862 17.9444C212.862 17.3091 212.775 16.7775 212.597 16.3497C212.419 15.9219 212.175 15.6003 211.863 15.3877C211.551 15.1725 211.186 15.0662 210.773 15.0662C210.359 15.0662 209.992 15.1725 209.678 15.3877C209.363 15.6029 209.113 15.9219 208.938 16.3497C208.763 16.7775 208.673 17.3091 208.673 17.9444C208.673 18.5796 208.76 19.1112 208.938 19.539C209.116 19.9669 209.363 20.2884 209.678 20.501C209.992 20.7137 210.359 20.8226 210.773 20.8226Z" fill="#8AA1C4"/>
<path d="M214.952 21.6887V20.9601L218.173 18.0171C218.458 17.7604 218.671 17.5348 218.811 17.3377C218.951 17.1406 219.044 16.9591 219.093 16.7932C219.142 16.6246 219.167 16.4639 219.167 16.3057C219.167 15.9194 219.025 15.6186 218.737 15.3956C218.449 15.1752 218.033 15.0637 217.483 15.0637C217.061 15.0637 216.68 15.1285 216.341 15.2607C216.001 15.393 215.708 15.5978 215.459 15.8753L214.689 15.2452C214.991 14.8822 215.396 14.6021 215.905 14.4051C216.415 14.208 216.973 14.1121 217.584 14.1121C218.135 14.1121 218.611 14.195 219.019 14.3636C219.427 14.5321 219.739 14.7707 219.961 15.0844C220.183 15.3982 220.295 15.769 220.295 16.1968C220.295 16.4405 220.262 16.6791 220.194 16.9125C220.125 17.1484 219.999 17.3973 219.81 17.6618C219.622 17.9263 219.35 18.2219 218.997 18.5486L216.127 21.1701L215.856 20.7526H220.635V21.6835H214.952V21.6887Z" fill="#8AA1C4"/>
<path d="M224.781 21.7742C224.165 21.7742 223.611 21.6238 223.127 21.3256C222.642 21.0248 222.256 20.5918 221.974 20.0213C221.692 19.4509 221.549 18.7586 221.549 17.947C221.549 17.1354 221.692 16.443 221.974 15.8726C222.256 15.3021 222.639 14.8665 223.127 14.5683C223.611 14.2676 224.165 14.1198 224.781 14.1198C225.397 14.1198 225.942 14.2701 226.429 14.5683C226.917 14.8665 227.303 15.3021 227.582 15.8726C227.862 16.443 228.001 17.1354 228.001 17.947C228.001 18.7586 227.862 19.4509 227.582 20.0213C227.303 20.5918 226.92 21.0274 226.429 21.3256C225.939 21.6238 225.391 21.7742 224.781 21.7742ZM224.781 20.8226C225.194 20.8226 225.559 20.7162 225.871 20.501C226.183 20.2858 226.429 19.9669 226.605 19.539C226.783 19.1112 226.87 18.5796 226.87 17.9444C226.87 17.3091 226.783 16.7775 226.605 16.3497C226.427 15.9219 226.183 15.6003 225.871 15.3877C225.559 15.1725 225.194 15.0662 224.781 15.0662C224.367 15.0662 224 15.1725 223.685 15.3877C223.37 15.6029 223.121 15.9219 222.946 16.3497C222.771 16.7775 222.68 17.3091 222.68 17.9444C222.68 18.5796 222.768 19.1112 222.946 19.539C223.124 19.9669 223.37 20.2884 223.685 20.501C224 20.7137 224.367 20.8226 224.781 20.8226Z" fill="#8AA1C4"/>
<path d="M67.4927 39.3431L86.7033 0.339722H91.0849L110.296 39.3431H105.613L87.963 2.73562H89.765L72.1153 39.3431H67.4927Z" fill="#8AA1C4"/>
<path d="M145.09 9.69763C143.211 6.76759 140.577 4.47281 137.2 2.8185C133.816 1.16419 129.886 0.337036 125.4 0.337036H113.178V3.90754H125.159C128.886 3.90754 132.118 4.58431 134.856 5.94043C137.6 7.29137 139.725 9.1583 141.248 11.536C142.771 13.9138 143.535 16.6857 143.535 19.8413C143.535 22.9969 142.771 25.7195 141.248 28.1129C139.725 30.5113 137.6 32.3861 134.856 33.7448C132.121 35.0957 128.886 35.7777 125.159 35.7777H113.178V39.3404H125.4C129.883 39.3404 133.816 38.5132 137.2 36.8589C140.577 35.2124 143.214 32.9176 145.09 29.9798C146.974 27.0446 147.913 23.6659 147.913 19.8413C147.913 16.0167 146.974 12.6329 145.09 9.69504V9.69763Z" fill="#8AA1C4"/>
<path d="M172.888 39.6775C169.725 39.6775 166.795 39.1849 164.095 38.1995C161.395 37.2142 159.051 35.8218 157.071 34.0197C155.091 32.2176 153.549 30.1199 152.448 27.724C151.347 25.3281 150.797 22.7014 150.797 19.8388C150.797 16.9761 151.347 14.3495 152.448 11.9536C153.549 9.55766 155.091 7.45995 157.071 5.65784C159.051 3.85573 161.381 2.46331 164.065 1.47798C166.746 0.492658 169.687 0 172.888 0C176.09 0 178.971 0.492658 181.652 1.47798C184.333 2.46331 186.663 3.84536 188.646 5.62932C190.626 7.41328 192.168 9.51099 193.268 11.925C194.369 14.3391 194.92 16.9761 194.92 19.8362C194.92 22.6962 194.369 25.3333 193.268 27.7473C192.168 30.1613 190.629 32.2616 188.646 34.043C186.666 35.827 184.333 37.209 181.652 38.1943C178.971 39.1797 176.049 39.6723 172.888 39.6723V39.6775ZM172.888 35.9981C175.411 35.9981 177.741 35.5988 179.883 34.8001C182.024 34.0015 183.884 32.8684 185.466 31.4008C187.047 29.9332 188.276 28.2244 189.158 26.2745C190.037 24.3246 190.478 22.1802 190.478 19.8388C190.478 17.4973 190.037 15.3529 189.158 13.403C188.276 11.4531 187.047 9.74435 185.466 8.27673C183.884 6.80912 182.024 5.676 179.883 4.87736C177.741 4.07873 175.411 3.67942 172.888 3.67942C170.366 3.67942 168.025 4.07873 165.864 4.87736C163.703 5.676 161.833 6.80912 160.25 8.27673C158.67 9.74435 157.43 11.4531 156.529 13.403C155.628 15.3529 155.178 17.4973 155.178 19.8388C155.178 22.1802 155.628 24.2779 156.529 26.246C157.43 28.214 158.67 29.9332 160.25 31.4008C161.83 32.8684 163.703 34.0015 165.864 34.8001C168.025 35.5988 170.366 35.9981 172.888 35.9981Z" fill="#8AA1C4"/>
<path d="M32.6965 29.9825C34.5751 32.9125 37.2095 35.2073 40.5861 36.8616C43.9709 38.5159 47.9007 39.3431 52.3863 39.3431H64.6083V35.7726H52.6273C48.9002 35.7726 45.6688 35.0958 42.9303 33.7397C40.1863 32.3887 38.0612 30.5218 36.5386 28.1441C35.016 25.7663 34.2519 22.9944 34.2519 19.8388C34.2519 16.6832 35.016 13.9606 36.5386 11.5672C38.0612 9.16876 40.1863 7.29404 42.9303 5.93533C45.666 4.5844 48.9002 3.90245 52.6273 3.90245H64.6083V0.339722H52.3863C47.9034 0.339722 43.9709 1.16688 40.5861 2.82119C37.2095 4.46772 34.5723 6.76249 32.6965 9.70032C30.8124 12.6356 29.873 16.0142 29.873 19.8388C29.873 23.6634 30.8124 27.0472 32.6965 29.9851V29.9825Z" fill="#8AA1C4"/>
<path d="M65.064 56.4244C64.529 56.4244 64.0087 56.3473 63.503 56.1932C63.0047 56.0465 62.598 55.8337 62.2829 55.5549L62.7885 54.7404C63.0597 54.9752 63.3931 55.1586 63.7888 55.2907C64.1846 55.4301 64.5986 55.4998 65.031 55.4998C65.7199 55.4998 66.2255 55.3384 66.548 55.0155C66.8704 54.6927 67.0316 54.201 67.0316 53.5406V52.3079L67.1415 51.1522L67.0866 49.9855V48.3895H68.0869V53.4306C68.0869 54.4579 67.8304 55.2137 67.3174 55.6979C66.8044 56.1822 66.0533 56.4244 65.064 56.4244ZM64.9321 53.9809C64.3678 53.9809 63.8621 53.8635 63.4151 53.6287C62.9754 53.3865 62.6237 53.0527 62.3598 52.6271C62.1033 52.2015 61.9751 51.7099 61.9751 51.1522C61.9751 50.5872 62.1033 50.0955 62.3598 49.6773C62.6237 49.2517 62.9754 48.9215 63.4151 48.6867C63.8621 48.4519 64.3678 48.3345 64.9321 48.3345C65.4304 48.3345 65.8847 48.4372 66.2951 48.6427C66.7055 48.8408 67.0316 49.149 67.2735 49.5672C67.5226 49.9855 67.6472 50.5138 67.6472 51.1522C67.6472 51.7832 67.5226 52.3079 67.2735 52.7261C67.0316 53.1444 66.7055 53.4599 66.2951 53.6727C65.8847 53.8782 65.4304 53.9809 64.9321 53.9809ZM65.053 53.0563C65.4414 53.0563 65.7858 52.9756 66.0863 52.8142C66.3867 52.6528 66.6212 52.429 66.7898 52.1428C66.9657 51.8566 67.0536 51.5264 67.0536 51.1522C67.0536 50.778 66.9657 50.4478 66.7898 50.1616C66.6212 49.8754 66.3867 49.6553 66.0863 49.5012C65.7858 49.3398 65.4414 49.259 65.053 49.259C64.6646 49.259 64.3165 49.3398 64.0087 49.5012C63.7082 49.6553 63.4701 49.8754 63.2942 50.1616C63.1256 50.4478 63.0414 50.778 63.0414 51.1522C63.0414 51.5264 63.1256 51.8566 63.2942 52.1428C63.4701 52.429 63.7082 52.6528 64.0087 52.8142C64.3165 52.9756 64.6646 53.0563 65.053 53.0563Z" fill="#8AA1C4"/>
<path d="M70.1032 54.223V48.3895H71.1585V54.223H70.1032ZM70.6309 47.2668C70.4257 47.2668 70.2535 47.2008 70.1142 47.0687C69.9823 46.9366 69.9164 46.7752 69.9164 46.5844C69.9164 46.3863 69.9823 46.2212 70.1142 46.0891C70.2535 45.957 70.4257 45.891 70.6309 45.891C70.8361 45.891 71.0046 45.957 71.1365 46.0891C71.2758 46.2139 71.3454 46.3716 71.3454 46.5624C71.3454 46.7605 71.2794 46.9293 71.1475 47.0687C71.0156 47.2008 70.8434 47.2668 70.6309 47.2668Z" fill="#8AA1C4"/>
<path d="M73.3273 54.223V47.8722C73.3273 47.2998 73.4922 46.8449 73.8219 46.5074C74.159 46.1625 74.6354 45.9901 75.251 45.9901C75.4781 45.9901 75.6943 46.0194 75.8995 46.0781C76.112 46.1295 76.2916 46.2139 76.4381 46.3313L76.1194 47.1347C76.0094 47.0467 75.8849 46.9807 75.7456 46.9366C75.6064 46.8853 75.4598 46.8596 75.3059 46.8596C74.9981 46.8596 74.7636 46.9476 74.6024 47.1237C74.4412 47.2925 74.3606 47.5457 74.3606 47.8832V48.6647L74.3826 49.149V54.223H73.3273ZM72.338 49.259V48.3895H76.0534V49.259H72.338Z" fill="#8AA1C4"/>
<path d="M79.0493 54.2891C78.463 54.2891 78.0087 54.1313 77.6862 53.8158C77.3638 53.5003 77.2025 53.049 77.2025 52.462V47.1127H78.2578V52.418C78.2578 52.7335 78.3348 52.9756 78.4887 53.1444C78.6499 53.3132 78.8771 53.3975 79.1702 53.3975C79.5 53.3975 79.7748 53.3058 79.9946 53.1224L80.3244 53.8818C80.1632 54.0213 79.969 54.124 79.7418 54.19C79.5219 54.2561 79.2911 54.2891 79.0493 54.2891ZM76.2132 49.259V48.3895H79.9287V49.259H76.2132Z" fill="#8AA1C4"/>
<path d="M83.2711 54.2891C82.7874 54.2891 82.3257 54.223 81.886 54.091C81.4536 53.9589 81.1129 53.7975 80.8637 53.6067L81.3034 52.7702C81.5526 52.9389 81.8604 53.082 82.2268 53.1994C82.5932 53.3168 82.9669 53.3755 83.348 53.3755C83.839 53.3755 84.1908 53.3058 84.4033 53.1664C84.6231 53.027 84.733 52.8325 84.733 52.5831C84.733 52.3996 84.6671 52.2565 84.5352 52.1538C84.4033 52.0511 84.2274 51.974 84.0075 51.9227C83.795 51.8713 83.5569 51.8273 83.293 51.7906C83.0292 51.7465 82.7654 51.6952 82.5016 51.6365C82.2378 51.5704 81.9959 51.4824 81.7761 51.3723C81.5562 51.2549 81.3804 51.0972 81.2484 50.899C81.1165 50.6936 81.0506 50.4221 81.0506 50.0845C81.0506 49.7323 81.1495 49.4241 81.3474 49.16C81.5452 48.8958 81.8237 48.694 82.1828 48.5546C82.5492 48.4079 82.9816 48.3345 83.4799 48.3345C83.861 48.3345 84.2457 48.3822 84.6341 48.4776C85.0298 48.5656 85.3523 48.694 85.6014 48.8628L85.1508 49.6993C84.8869 49.5232 84.6121 49.4021 84.3263 49.3361C84.0405 49.27 83.7547 49.237 83.4689 49.237C83.0072 49.237 82.6628 49.3141 82.4356 49.4682C82.2084 49.6149 82.0949 49.8057 82.0949 50.0405C82.0949 50.2386 82.1608 50.3927 82.2927 50.5028C82.432 50.6055 82.6078 50.6862 82.8204 50.7449C83.0402 50.8036 83.282 50.855 83.5459 50.899C83.8097 50.9357 84.0735 50.9871 84.3373 51.0531C84.6011 51.1118 84.8393 51.1962 85.0518 51.3063C85.2717 51.4163 85.4476 51.5704 85.5795 51.7686C85.7187 51.9667 85.7883 52.2308 85.7883 52.561C85.7883 52.9133 85.6857 53.2178 85.4805 53.4746C85.2753 53.7314 84.9859 53.9332 84.6121 54.08C84.2384 54.2194 83.7914 54.2891 83.2711 54.2891Z" fill="#8AA1C4"/>
<path d="M90.2131 54.223V47.8722C90.2131 47.2998 90.378 46.8449 90.7078 46.5074C91.0449 46.1625 91.5212 45.9901 92.1368 45.9901C92.364 45.9901 92.5802 46.0194 92.7853 46.0781C92.9979 46.1295 93.1774 46.2139 93.324 46.3313L93.0052 47.1347C92.8953 47.0467 92.7707 46.9807 92.6315 46.9366C92.4922 46.8853 92.3457 46.8596 92.1918 46.8596C91.884 46.8596 91.6495 46.9476 91.4882 47.1237C91.327 47.2925 91.2464 47.5457 91.2464 47.8832V48.6647L91.2684 49.149V54.223H90.2131ZM89.2238 49.259V48.3895H92.9392V49.259H89.2238Z" fill="#8AA1C4"/>
<path d="M96.3439 54.2891C95.7576 54.2891 95.2373 54.1607 94.783 53.9039C94.3286 53.647 93.9695 53.2948 93.7057 52.8472C93.4419 52.3923 93.31 51.8786 93.31 51.3063C93.31 50.7266 93.4419 50.2129 93.7057 49.7653C93.9695 49.3177 94.3286 48.9692 94.783 48.7197C95.2373 48.4629 95.7576 48.3345 96.3439 48.3345C96.9228 48.3345 97.4395 48.4629 97.8938 48.7197C98.3555 48.9692 98.7146 49.3177 98.9711 49.7653C99.2349 50.2056 99.3668 50.7193 99.3668 51.3063C99.3668 51.886 99.2349 52.3996 98.9711 52.8472C98.7146 53.2948 98.3555 53.647 97.8938 53.9039C97.4395 54.1607 96.9228 54.2891 96.3439 54.2891ZM96.3439 53.3645C96.7176 53.3645 97.0511 53.2801 97.3442 53.1114C97.6447 52.9426 97.8792 52.7041 98.0477 52.3959C98.2163 52.0804 98.3005 51.7172 98.3005 51.3063C98.3005 50.888 98.2163 50.5285 98.0477 50.2276C97.8792 49.9194 97.6447 49.681 97.3442 49.5122C97.0511 49.3434 96.7176 49.259 96.3439 49.259C95.9701 49.259 95.6367 49.3434 95.3436 49.5122C95.0504 49.681 94.8159 49.9194 94.6401 50.2276C94.4642 50.5285 94.3762 50.888 94.3762 51.3063C94.3762 51.7172 94.4642 52.0804 94.6401 52.3959C94.8159 52.7041 95.0504 52.9426 95.3436 53.1114C95.6367 53.2801 95.9701 53.3645 96.3439 53.3645Z" fill="#8AA1C4"/>
<path d="M100.826 54.223V48.3895H101.838V49.9745L101.739 49.5782C101.9 49.1747 102.171 48.8665 102.552 48.6537C102.933 48.4409 103.402 48.3345 103.959 48.3345V49.3581C103.915 49.3508 103.871 49.3471 103.827 49.3471C103.791 49.3471 103.754 49.3471 103.717 49.3471C103.153 49.3471 102.706 49.5159 102.376 49.8534C102.046 50.1909 101.882 50.6789 101.882 51.3173V54.223H100.826Z" fill="#8AA1C4"/>
<path d="M108.287 54.223V46.0561H109.342V54.223H108.287Z" fill="#8AA1C4"/>
<path d="M113.852 54.2891C113.266 54.2891 112.746 54.1607 112.291 53.9039C111.837 53.647 111.478 53.2948 111.214 52.8472C110.95 52.3923 110.818 51.8786 110.818 51.3063C110.818 50.7266 110.95 50.2129 111.214 49.7653C111.478 49.3177 111.837 48.9692 112.291 48.7197C112.746 48.4629 113.266 48.3345 113.852 48.3345C114.431 48.3345 114.948 48.4629 115.402 48.7197C115.864 48.9692 116.223 49.3177 116.48 49.7653C116.743 50.2056 116.875 50.7193 116.875 51.3063C116.875 51.886 116.743 52.3996 116.48 52.8472C116.223 53.2948 115.864 53.647 115.402 53.9039C114.948 54.1607 114.431 54.2891 113.852 54.2891ZM113.852 53.3645C114.226 53.3645 114.56 53.2801 114.853 53.1114C115.153 52.9426 115.388 52.7041 115.556 52.3959C115.725 52.0804 115.809 51.7172 115.809 51.3063C115.809 50.888 115.725 50.5285 115.556 50.2276C115.388 49.9194 115.153 49.681 114.853 49.5122C114.56 49.3434 114.226 49.259 113.852 49.259C113.479 49.259 113.145 49.3434 112.852 49.5122C112.559 49.681 112.324 49.9194 112.149 50.2276C111.973 50.5285 111.885 50.888 111.885 51.3063C111.885 51.7172 111.973 52.0804 112.149 52.3959C112.324 52.7041 112.559 52.9426 112.852 53.1114C113.145 53.2801 113.479 53.3645 113.852 53.3645Z" fill="#8AA1C4"/>
<path d="M119.702 54.223L117.151 48.3895H118.251L120.515 53.6727H119.987L122.296 48.3895H123.329L120.779 54.223H119.702Z" fill="#8AA1C4"/>
<path d="M126.747 54.2891C126.124 54.2891 125.575 54.1607 125.098 53.9039C124.629 53.647 124.263 53.2948 123.999 52.8472C123.743 52.3996 123.614 51.886 123.614 51.3063C123.614 50.7266 123.739 50.2129 123.988 49.7653C124.245 49.3177 124.593 48.9692 125.032 48.7197C125.479 48.4629 125.981 48.3345 126.538 48.3345C127.103 48.3345 127.601 48.4592 128.033 48.7087C128.466 48.9582 128.803 49.3104 129.045 49.7653C129.294 50.2129 129.418 50.7376 129.418 51.3393C129.418 51.3833 129.415 51.4347 129.407 51.4934C129.407 51.5521 129.404 51.6071 129.396 51.6585H124.439V50.899H128.847L128.418 51.1632C128.425 50.789 128.348 50.4551 128.187 50.1616C128.026 49.8681 127.802 49.6406 127.517 49.4792C127.238 49.3104 126.912 49.226 126.538 49.226C126.172 49.226 125.846 49.3104 125.56 49.4792C125.274 49.6406 125.051 49.8717 124.889 50.1726C124.728 50.4661 124.648 50.8036 124.648 51.1852V51.3613C124.648 51.7502 124.736 52.0988 124.911 52.4069C125.095 52.7078 125.347 52.9426 125.67 53.1114C125.992 53.2801 126.362 53.3645 126.78 53.3645C127.125 53.3645 127.436 53.3058 127.714 53.1884C128 53.071 128.249 52.8949 128.462 52.6601L129.045 53.3425C128.781 53.6507 128.451 53.8855 128.055 54.0469C127.667 54.2084 127.231 54.2891 126.747 54.2891Z" fill="#8AA1C4"/>
<path d="M133.291 54.2891C132.727 54.2891 132.221 54.1643 131.774 53.9149C131.334 53.6654 130.986 53.3168 130.73 52.8692C130.473 52.4216 130.345 51.9006 130.345 51.3063C130.345 50.7119 130.473 50.1946 130.73 49.7543C130.986 49.3067 131.334 48.9582 131.774 48.7087C132.221 48.4592 132.727 48.3345 133.291 48.3345C133.782 48.3345 134.225 48.4445 134.621 48.6647C135.017 48.8848 135.332 49.215 135.566 49.6553C135.808 50.0955 135.929 50.6459 135.929 51.3063C135.929 51.9667 135.812 52.517 135.577 52.9573C135.35 53.3975 135.039 53.7314 134.643 53.9589C134.247 54.179 133.797 54.2891 133.291 54.2891ZM133.379 53.3645C133.745 53.3645 134.075 53.2801 134.368 53.1114C134.669 52.9426 134.903 52.7041 135.072 52.3959C135.248 52.0804 135.336 51.7172 135.336 51.3063C135.336 50.888 135.248 50.5285 135.072 50.2276C134.903 49.9194 134.669 49.681 134.368 49.5122C134.075 49.3434 133.745 49.259 133.379 49.259C133.005 49.259 132.672 49.3434 132.379 49.5122C132.086 49.681 131.851 49.9194 131.675 50.2276C131.499 50.5285 131.411 50.888 131.411 51.3063C131.411 51.7172 131.499 52.0804 131.675 52.3959C131.851 52.7041 132.086 52.9426 132.379 53.1114C132.672 53.2801 133.005 53.3645 133.379 53.3645ZM135.369 54.223V52.6491L135.435 51.2953L135.325 49.9414V46.0561H136.38V54.223H135.369Z" fill="#8AA1C4"/>
<path d="M143.824 54.2891C143.238 54.2891 142.717 54.1607 142.263 53.9039C141.809 53.647 141.45 53.2948 141.186 52.8472C140.922 52.3923 140.79 51.8786 140.79 51.3063C140.79 50.7266 140.922 50.2129 141.186 49.7653C141.45 49.3177 141.809 48.9692 142.263 48.7197C142.717 48.4629 143.238 48.3345 143.824 48.3345C144.403 48.3345 144.919 48.4629 145.374 48.7197C145.836 48.9692 146.195 49.3177 146.451 49.7653C146.715 50.2056 146.847 50.7193 146.847 51.3063C146.847 51.886 146.715 52.3996 146.451 52.8472C146.195 53.2948 145.836 53.647 145.374 53.9039C144.919 54.1607 144.403 54.2891 143.824 54.2891ZM143.824 53.3645C144.198 53.3645 144.531 53.2801 144.824 53.1114C145.125 52.9426 145.359 52.7041 145.528 52.3959C145.696 52.0804 145.781 51.7172 145.781 51.3063C145.781 50.888 145.696 50.5285 145.528 50.2276C145.359 49.9194 145.125 49.681 144.824 49.5122C144.531 49.3434 144.198 49.259 143.824 49.259C143.45 49.259 143.117 49.3434 142.824 49.5122C142.53 49.681 142.296 49.9194 142.12 50.2276C141.944 50.5285 141.856 50.888 141.856 51.3063C141.856 51.7172 141.944 52.0804 142.12 52.3959C142.296 52.7041 142.53 52.9426 142.824 53.1114C143.117 53.2801 143.45 53.3645 143.824 53.3645Z" fill="#8AA1C4"/>
<path d="M151.417 48.3345C151.893 48.3345 152.311 48.4262 152.67 48.6096C153.037 48.7931 153.322 49.0719 153.528 49.4461C153.733 49.8204 153.835 50.2937 153.835 50.866V54.223H152.78V50.9871C152.78 50.4221 152.641 49.9965 152.362 49.7103C152.091 49.4241 151.707 49.281 151.208 49.281C150.835 49.281 150.508 49.3544 150.23 49.5012C149.951 49.6479 149.735 49.8644 149.581 50.1506C149.435 50.4368 149.362 50.7926 149.362 51.2182V54.223H148.306V48.3895H149.318V49.9635L149.153 49.5452C149.343 49.1636 149.636 48.8665 150.032 48.6537C150.428 48.4409 150.889 48.3345 151.417 48.3345Z" fill="#8AA1C4"/>
<path d="M158.383 54.2891C157.76 54.2891 157.21 54.1607 156.734 53.9039C156.265 53.647 155.898 53.2948 155.635 52.8472C155.378 52.3996 155.25 51.886 155.25 51.3063C155.25 50.7266 155.374 50.2129 155.624 49.7653C155.88 49.3177 156.228 48.9692 156.668 48.7197C157.115 48.4629 157.617 48.3345 158.174 48.3345C158.738 48.3345 159.236 48.4592 159.669 48.7087C160.101 48.9582 160.438 49.3104 160.68 49.7653C160.929 50.2129 161.054 50.7376 161.054 51.3393C161.054 51.3833 161.05 51.4347 161.043 51.4934C161.043 51.5521 161.039 51.6071 161.032 51.6585H156.074V50.899H160.482L160.053 51.1632C160.061 50.789 159.984 50.4551 159.823 50.1616C159.661 49.8681 159.438 49.6406 159.152 49.4792C158.874 49.3104 158.548 49.226 158.174 49.226C157.807 49.226 157.481 49.3104 157.195 49.4792C156.91 49.6406 156.686 49.8717 156.525 50.1726C156.364 50.4661 156.283 50.8036 156.283 51.1852V51.3613C156.283 51.7502 156.371 52.0988 156.547 52.4069C156.73 52.7078 156.983 52.9426 157.305 53.1114C157.628 53.2801 157.998 53.3645 158.416 53.3645C158.76 53.3645 159.071 53.3058 159.35 53.1884C159.636 53.071 159.885 52.8949 160.097 52.6601L160.68 53.3425C160.416 53.6507 160.086 53.8855 159.691 54.0469C159.302 54.2084 158.866 54.2891 158.383 54.2891Z" fill="#8AA1C4"/>
<path d="M164.19 54.2891C163.706 54.2891 163.245 54.223 162.805 54.091C162.373 53.9589 162.032 53.7975 161.783 53.6067L162.222 52.7702C162.471 52.9389 162.779 53.082 163.146 53.1994C163.512 53.3168 163.886 53.3755 164.267 53.3755C164.758 53.3755 165.11 53.3058 165.322 53.1664C165.542 53.027 165.652 52.8325 165.652 52.5831C165.652 52.3996 165.586 52.2565 165.454 52.1538C165.322 52.0511 165.146 51.974 164.926 51.9227C164.714 51.8713 164.476 51.8273 164.212 51.7906C163.948 51.7465 163.684 51.6952 163.421 51.6365C163.157 51.5704 162.915 51.4824 162.695 51.3723C162.475 51.2549 162.299 51.0972 162.167 50.899C162.035 50.6936 161.97 50.4221 161.97 50.0845C161.97 49.7323 162.068 49.4241 162.266 49.16C162.464 48.8958 162.743 48.694 163.102 48.5546C163.468 48.4079 163.901 48.3345 164.399 48.3345C164.78 48.3345 165.165 48.3822 165.553 48.4776C165.949 48.5656 166.271 48.694 166.52 48.8628L166.07 49.6993C165.806 49.5232 165.531 49.4021 165.245 49.3361C164.959 49.27 164.674 49.237 164.388 49.237C163.926 49.237 163.582 49.3141 163.355 49.4682C163.127 49.6149 163.014 49.8057 163.014 50.0405C163.014 50.2386 163.08 50.3927 163.212 50.5028C163.351 50.6055 163.527 50.6862 163.739 50.7449C163.959 50.8036 164.201 50.855 164.465 50.899C164.729 50.9357 164.992 50.9871 165.256 51.0531C165.52 51.1118 165.758 51.1962 165.971 51.3063C166.191 51.4163 166.366 51.5704 166.498 51.7686C166.638 51.9667 166.707 52.2308 166.707 52.561C166.707 52.9133 166.605 53.2178 166.399 53.4746C166.194 53.7314 165.905 53.9332 165.531 54.08C165.157 54.2194 164.71 54.2891 164.19 54.2891Z" fill="#8AA1C4"/>
</svg>
