<svg width="228" height="57" viewBox="0 0 228 57" fill="none" xmlns="http://www.w3.org/2000/svg">
<path d="M227.023 25.6012L201.297 25.6313L201.299 27.2797L227.025 27.2495L227.023 25.6012Z" fill="#8AA1C4"/>
<path d="M21.5788 25.9545L0 25.9799L0.00175735 27.3618L21.5805 27.3365L21.5788 25.9545Z" fill="#8AA1C4"/>
<path d="M3.69404 21.923C3.05506 21.923 2.49221 21.7976 2.00549 21.5442C1.51878 21.2908 1.1435 20.9434 0.874308 20.5019C0.605118 20.0604 0.474609 19.5536 0.474609 18.9815C0.474609 18.4095 0.605107 17.9027 0.863421 17.4612C1.12445 17.0197 1.48071 16.6749 1.93752 16.4241C2.39433 16.1733 2.90821 16.0505 3.47922 16.0505C4.05023 16.0505 4.57227 16.1733 5.01549 16.4189C5.4587 16.6644 5.80949 17.0092 6.05964 17.456C6.3098 17.9027 6.43757 18.4199 6.43757 19.0129C6.43757 19.0573 6.43756 19.1069 6.43212 19.1644C6.4294 19.2219 6.4213 19.2767 6.41586 19.3264H1.32028V18.5766H5.85027L5.40974 18.8379C5.4179 18.4695 5.33908 18.1404 5.17321 17.8504C5.00735 17.5604 4.77894 17.3358 4.49072 17.1712C4.19978 17.0092 3.86262 16.9257 3.47922 16.9257C3.09583 16.9257 2.76683 17.0066 2.47317 17.1712C2.17951 17.3332 1.94838 17.5631 1.78251 17.8556C1.61665 18.1482 1.53503 18.4826 1.53503 18.8588V19.0338C1.53503 19.4178 1.62748 19.76 1.81238 20.0604C1.99728 20.3608 2.25562 20.5933 2.58735 20.7605C2.91908 20.9277 3.29974 21.0113 3.72936 21.0113C4.08284 21.0113 4.40643 20.9538 4.69465 20.8389C4.98288 20.724 5.23848 20.5489 5.45601 20.3164L6.0542 20.9904C5.78229 21.2934 5.44513 21.5259 5.0427 21.6853C4.64028 21.8446 4.18892 21.923 3.69404 21.923Z" fill="#8AA1C4"/>
<path d="M9.66016 21.923C9.16256 21.923 8.68945 21.8577 8.24352 21.7271C7.79487 21.5965 7.44407 21.4371 7.18848 21.249L7.63989 20.4235C7.89548 20.5907 8.2109 20.7318 8.58885 20.8467C8.96409 20.9617 9.35019 21.0218 9.74174 21.0218C10.2475 21.0218 10.6091 20.9538 10.8321 20.8154C11.0551 20.6769 11.1665 20.4862 11.1665 20.2407C11.1665 20.0604 11.0986 19.9194 10.9626 19.8175C10.8267 19.7156 10.6472 19.6398 10.427 19.5902C10.204 19.5406 9.95929 19.4936 9.68738 19.4544C9.41547 19.4152 9.14621 19.3629 8.8743 19.3029C8.60239 19.2428 8.35496 19.154 8.12927 19.0416C7.90359 18.9293 7.72141 18.7752 7.58545 18.574C7.4495 18.3755 7.38152 18.109 7.38152 17.7773C7.38152 17.4455 7.48216 17.1268 7.68609 16.8656C7.89002 16.6043 8.17823 16.4032 8.55075 16.2621C8.92326 16.1211 9.36651 16.0505 9.8777 16.0505C10.2692 16.0505 10.6662 16.0949 11.0686 16.1864C11.4711 16.2778 11.8001 16.4058 12.0584 16.573L11.5961 17.3985C11.3242 17.2261 11.0415 17.1059 10.7478 17.0406C10.4541 16.9753 10.1605 16.9439 9.86681 16.9439C9.39097 16.9439 9.03751 17.0171 8.80367 17.166C8.56983 17.3149 8.4529 17.503 8.4529 17.7355C8.4529 17.9314 8.5236 18.0803 8.66227 18.1848C8.80095 18.2893 8.98312 18.3703 9.20337 18.4277C9.42633 18.4852 9.67105 18.5348 9.94295 18.574C10.2149 18.6132 10.4841 18.6655 10.756 18.7255C11.0279 18.7882 11.2726 18.8718 11.4955 18.9815C11.7185 19.0913 11.898 19.2428 12.0366 19.4387C12.1753 19.6346 12.246 19.8959 12.246 20.2198C12.246 20.5672 12.14 20.8676 11.9306 21.121C11.7185 21.3744 11.4222 21.5703 11.0388 21.7114C10.6554 21.8525 10.1958 21.923 9.66016 21.923Z" fill="#8AA1C4"/>
<path d="M12.7432 16.9622V16.1053H16.5607V16.9622H12.7432ZM15.658 21.9229C15.0544 21.9229 14.5894 21.7688 14.2577 21.4553C13.9259 21.1445 13.7601 20.7004 13.7601 20.1204V14.8462H14.845V20.0786C14.845 20.3895 14.9266 20.6298 15.087 20.7944C15.2474 20.9616 15.4813 21.0452 15.7804 21.0452C16.1203 21.0452 16.403 20.9538 16.6287 20.7735L16.9686 21.5233C16.8027 21.6617 16.6042 21.761 16.3758 21.8263C16.1474 21.8916 15.9082 21.9229 15.658 21.9229Z" fill="#8AA1C4"/>
<path d="M18.6521 21.9229C18.44 21.9229 18.2605 21.8523 18.111 21.7113C17.9614 21.5702 17.8853 21.3899 17.8853 21.1731C17.8853 20.9563 17.9614 20.7787 18.111 20.6402C18.2605 20.5018 18.4427 20.4338 18.6521 20.4338C18.8614 20.4338 19.03 20.5018 19.1768 20.6402C19.3237 20.7787 19.3971 20.9563 19.3971 21.1731C19.3971 21.3899 19.3237 21.5702 19.1768 21.7113C19.03 21.8523 18.856 21.9229 18.6521 21.9229Z" fill="#8AA1C4"/>
<path d="M29.6421 54.4436V48.7305H35.151V54.4436H34.0742V49.3783L34.3325 49.6369H30.4633L30.7216 49.3783V54.4436H29.6448H29.6421Z" fill="#8AA1C4"/>
<path d="M39.7846 54.5062C39.1864 54.5062 38.6561 54.3808 38.1912 54.13C37.7262 53.8792 37.3618 53.5318 37.0926 53.0903C36.8235 52.6489 36.6875 52.1473 36.6875 51.5856C36.6875 51.024 36.8235 50.5146 37.0926 50.0757C37.3618 49.6369 37.7289 49.2947 38.1912 49.0465C38.6561 48.7983 39.1864 48.6755 39.7846 48.6755C40.3828 48.6755 40.9048 48.7983 41.3725 49.0465C41.8402 49.2947 42.2073 49.6369 42.471 50.0705C42.7375 50.5041 42.868 51.0109 42.868 51.5856C42.868 52.1603 42.7348 52.6567 42.471 53.0956C42.2046 53.5344 41.8375 53.8792 41.3725 54.13C40.9075 54.3808 40.3746 54.5062 39.7846 54.5062ZM39.7846 53.6024C40.1653 53.6024 40.5079 53.5188 40.8124 53.3542C41.117 53.1896 41.3535 52.9545 41.5248 52.6489C41.6961 52.3432 41.7831 51.9906 41.7831 51.5883C41.7831 51.186 41.6961 50.8255 41.5248 50.5277C41.3535 50.2299 41.1142 49.9974 40.8124 49.8328C40.5106 49.6682 40.168 49.5846 39.7846 49.5846C39.4012 49.5846 39.064 49.6682 38.7649 49.8328C38.4658 49.9974 38.2265 50.2299 38.047 50.5277C37.8676 50.8255 37.7779 51.1807 37.7779 51.5883C37.7779 51.9958 37.8676 52.3432 38.047 52.6489C38.2265 52.9545 38.4658 53.1896 38.7649 53.3542C39.064 53.5188 39.4039 53.6024 39.7846 53.6024Z" fill="#8AA1C4"/>
<path d="M43.4307 55.7679V53.537H50.4323V55.7679H49.4236V54.4408H44.453V55.7679H43.4334H43.4307ZM48.4447 53.9575V49.6342H45.8642L45.8072 50.7339C45.7908 51.0944 45.7691 51.4393 45.7337 51.7737C45.7011 52.108 45.6468 52.4163 45.5761 52.6958C45.5054 52.9753 45.402 53.2052 45.2688 53.3855C45.1328 53.5657 44.9534 53.6754 44.7304 53.7198L43.6645 53.537C43.8957 53.5448 44.0832 53.4717 44.2246 53.3149C44.366 53.1608 44.4776 52.9466 44.5564 52.6723C44.6353 52.4006 44.6923 52.0897 44.7304 51.7397C44.7685 51.3923 44.7984 51.0291 44.8202 50.6556L44.9098 48.7251H49.5215V53.9523H48.4447V53.9575Z" fill="#8AA1C4"/>
<path d="M53.5274 54.5062C53.0869 54.5062 52.6981 54.433 52.3664 54.2894C52.0346 54.1457 51.7763 53.9471 51.5968 53.6911C51.4174 53.4351 51.3276 53.1478 51.3276 52.8238C51.3276 52.4999 51.4038 52.2361 51.5588 51.9827C51.7138 51.7293 51.9639 51.5308 52.3093 51.3792C52.6573 51.2277 53.125 51.152 53.7177 51.152H55.602V51.8965H53.7612C53.2228 51.8965 52.8612 51.9827 52.6736 52.1551C52.486 52.3275 52.3935 52.5365 52.3935 52.7794C52.3935 53.0589 52.5104 53.2836 52.7416 53.4534C52.9727 53.6232 53.2963 53.7068 53.7068 53.7068C54.1174 53.7068 54.4654 53.6206 54.7673 53.4482C55.0691 53.2758 55.2894 53.025 55.4226 52.6932L55.6347 53.4038C55.4933 53.7408 55.2432 54.0098 54.8842 54.2058C54.5253 54.4017 54.0739 54.5009 53.5274 54.5009V54.5062ZM55.4797 54.4435V53.2366L55.4226 53.0093V50.9508C55.4226 50.5119 55.2894 50.1724 55.0256 49.932C54.7592 49.6917 54.3621 49.5715 53.8319 49.5715C53.4812 49.5715 53.1358 49.6264 52.7986 49.7387C52.4615 49.851 52.1787 49.9999 51.9449 50.1854L51.4962 49.4096C51.8034 49.1718 52.1705 48.9916 52.6002 48.8662C53.0298 48.7408 53.4811 48.6781 53.9515 48.6781C54.7673 48.6781 55.3954 48.8688 55.8359 49.2502C56.2764 49.6316 56.4966 50.2141 56.4966 50.9952V54.4435H55.477H55.4797Z" fill="#8AA1C4"/>
<path d="M58.4409 56.5334V48.7304H59.4742V50.2717L59.4062 51.5987L59.5177 52.9258V56.536H58.4409V56.5334ZM61.5951 54.5062C61.1002 54.5062 60.6516 54.3965 60.2437 54.1771C59.8358 53.9576 59.5095 53.6337 59.2675 53.2027C59.0255 52.7716 58.9032 52.2335 58.9032 51.5856C58.9032 50.9378 59.0201 50.3996 59.2566 49.9686C59.4932 49.5376 59.8141 49.2137 60.2219 48.9995C60.6298 48.7826 61.0866 48.6755 61.5951 48.6755C62.1797 48.6755 62.6936 48.7983 63.1422 49.0413C63.5909 49.2842 63.9471 49.6238 64.2081 50.0601C64.4691 50.4963 64.5997 51.0031 64.5997 51.5856C64.5997 52.1682 64.4691 52.6776 64.2081 53.1165C63.9471 53.5553 63.5909 53.8975 63.1422 54.1405C62.6936 54.386 62.177 54.5062 61.5951 54.5062ZM61.5053 53.6024C61.886 53.6024 62.2286 53.5188 62.5304 53.3542C62.8323 53.1896 63.0716 52.9545 63.2483 52.6489C63.4251 52.3432 63.5121 51.9905 63.5121 51.5883C63.5121 51.186 63.4251 50.8255 63.2483 50.5277C63.0716 50.2299 62.8323 49.9974 62.5304 49.8328C62.2286 49.6682 61.886 49.5846 61.5053 49.5846C61.1247 49.5846 60.7929 49.6682 60.4911 49.8328C60.1893 49.9974 59.9473 50.2299 59.7733 50.5277C59.5966 50.8255 59.5096 51.1807 59.5096 51.5883C59.5096 51.9958 59.5966 52.3432 59.7733 52.6489C59.9501 52.9545 60.1893 53.1896 60.4911 53.3542C60.7929 53.5188 61.1328 53.6024 61.5053 53.6024Z" fill="#8AA1C4"/>
<path d="M66.1597 54.4435V48.7303H67.2364V54.4435H66.1597ZM66.9129 52.0271V51.1441H68.876V52.0271H66.9129ZM69.1452 51.7058L68.1473 51.5752L70.4259 48.7303H71.5815L69.148 51.7058H69.1452ZM70.4694 54.4435L68.1691 51.6614L69.0555 51.1441L71.7365 54.4435H70.4694Z" fill="#8AA1C4"/>
<path d="M72.8677 54.4435V48.7303H73.9444V52.8918L77.5908 48.7303H78.5669V54.4435H77.4901V50.2821L73.8547 54.4435H72.8677Z" fill="#8AA1C4"/>
<path d="M82.7197 55.7679V53.537H89.7214V55.7679H88.7126V54.4408H83.7421V55.7679H82.7224H82.7197ZM87.7337 53.9575V49.6342H85.1533L85.0962 50.7339C85.0799 51.0944 85.0581 51.4393 85.0228 51.7737C84.9902 52.108 84.9358 52.4163 84.8651 52.6958C84.7944 52.9753 84.6911 53.2052 84.5578 53.3855C84.4219 53.5657 84.2424 53.6754 84.0195 53.7198L82.9536 53.537C83.1847 53.5448 83.3723 53.4717 83.5137 53.3149C83.6551 53.1608 83.7666 52.9466 83.8455 52.6723C83.9243 52.4006 83.9814 52.0897 84.0195 51.7397C84.0575 51.3923 84.0875 51.0291 84.1092 50.6556L84.1989 48.7251H88.8105V53.9523H87.7337V53.9575Z" fill="#8AA1C4"/>
<path d="M90.1343 54.433L90.2023 53.5605C90.2539 53.5683 90.3029 53.5762 90.3491 53.5814C90.3953 53.5866 90.4361 53.5919 90.4714 53.5919C90.7107 53.5919 90.8984 53.5135 91.037 53.3541C91.1757 53.1948 91.279 52.9858 91.3443 52.7246C91.4122 52.4633 91.4612 52.1655 91.4911 51.8364C91.521 51.5072 91.5428 51.1755 91.5591 50.8437L91.6597 48.7303H96.225V54.4435H95.1483V49.3338L95.4066 49.6368H92.3558L92.6032 49.3233L92.5244 50.909C92.5026 51.4132 92.4618 51.8834 92.402 52.3223C92.3422 52.7611 92.2498 53.1452 92.1274 53.4743C92.005 53.8061 91.8364 54.0647 91.6216 54.2502C91.4095 54.4382 91.1349 54.5297 90.7977 54.5297C90.6998 54.5297 90.5965 54.5192 90.4905 54.5036C90.3817 54.4853 90.2648 54.4618 90.137 54.433H90.1343Z" fill="#8AA1C4"/>
<path d="M97.8079 54.4435L99.423 52.2544H100.532L98.9608 54.4435H97.8052H97.8079ZM102.118 54.4435V52.4399L102.286 52.6332H100.391C99.5971 52.6332 98.9799 52.4712 98.5339 52.1473C98.088 51.8234 97.865 51.3532 97.865 50.734C97.865 50.0731 98.1016 49.5742 98.5774 49.2346C99.0533 48.8976 99.6868 48.7278 100.478 48.7278H103.08V54.4409H102.115L102.118 54.4435ZM102.118 52.1133V49.3443L102.286 49.6343H100.513C100.019 49.6343 99.6378 49.7231 99.3687 49.8981C99.0995 50.0731 98.9635 50.3631 98.9635 50.7654C98.9635 51.5125 99.4638 51.8861 100.467 51.8861H102.284L102.115 52.1133H102.118Z" fill="#8AA1C4"/>
<path d="M110.788 54.5062C110.182 54.5062 109.641 54.3808 109.168 54.13C108.692 53.8792 108.319 53.5344 108.05 53.0956C107.781 52.6567 107.645 52.1551 107.645 51.5856C107.645 51.0162 107.781 50.5146 108.05 50.0757C108.319 49.6369 108.692 49.2947 109.168 49.0465C109.644 48.7983 110.182 48.6755 110.788 48.6755C111.327 48.6755 111.808 48.7774 112.229 48.9838C112.651 49.1875 112.98 49.4932 113.211 49.8955L112.393 50.4023C112.197 50.1228 111.96 49.9164 111.68 49.7832C111.4 49.6499 111.098 49.5846 110.777 49.5846C110.389 49.5846 110.041 49.6682 109.733 49.8328C109.426 49.9974 109.184 50.2299 109.005 50.5277C108.825 50.8255 108.735 51.1807 108.735 51.5883C108.735 51.9958 108.825 52.3537 109.005 52.6541C109.184 52.9545 109.426 53.1896 109.733 53.3542C110.041 53.5188 110.389 53.6024 110.777 53.6024C111.098 53.6024 111.4 53.537 111.68 53.4038C111.96 53.2706 112.197 53.0642 112.393 52.7847L113.211 53.281C112.98 53.6755 112.651 53.9811 112.229 54.1927C111.808 54.4043 111.327 54.5114 110.788 54.5114V54.5062Z" fill="#8AA1C4"/>
<path d="M116.298 54.5062C115.857 54.5062 115.469 54.433 115.137 54.2894C114.805 54.1457 114.547 53.9471 114.367 53.6911C114.188 53.4351 114.098 53.1478 114.098 52.8238C114.098 52.4999 114.174 52.2361 114.329 51.9827C114.484 51.7293 114.734 51.5308 115.08 51.3792C115.428 51.2277 115.895 51.152 116.488 51.152H118.373V51.8965H116.532C115.993 51.8965 115.632 51.9827 115.444 52.1551C115.256 52.3275 115.164 52.5365 115.164 52.7794C115.164 53.0589 115.281 53.2836 115.512 53.4534C115.743 53.6232 116.067 53.7068 116.477 53.7068C116.888 53.7068 117.236 53.6206 117.538 53.4482C117.84 53.2758 118.06 53.025 118.193 52.6932L118.405 53.4038C118.264 53.7408 118.014 54.0098 117.655 54.2058C117.296 54.4017 116.844 54.5009 116.298 54.5009V54.5062ZM118.25 54.4435V53.2366L118.193 53.0093V50.9508C118.193 50.5119 118.06 50.1724 117.796 49.932C117.53 49.6917 117.133 49.5715 116.602 49.5715C116.252 49.5715 115.906 49.6264 115.569 49.7387C115.232 49.851 114.949 49.9999 114.715 50.1854L114.267 49.4096C114.574 49.1718 114.941 48.9916 115.371 48.8662C115.8 48.7408 116.252 48.6781 116.722 48.6781C117.538 48.6781 118.166 48.8688 118.606 49.2502C119.047 49.6316 119.267 50.2141 119.267 50.9952V54.4435H118.247H118.25Z" fill="#8AA1C4"/>
<path d="M121.21 54.4435V48.7303H122.319L124.878 52.9544H124.429L127.056 48.7303H128.065V54.4435H127.089V49.8954L127.268 49.9921L124.867 53.7956H124.397L121.985 49.9163L122.197 49.8719V54.4409H121.21V54.4435Z" fill="#8AA1C4"/>
<path d="M132.846 50.6687C133.602 50.6765 134.175 50.8411 134.567 51.165C134.958 51.4889 135.157 51.9435 135.157 52.5339C135.157 53.1243 134.942 53.6284 134.512 53.9628C134.083 54.2972 133.468 54.4592 132.666 54.4539L130.165 54.4435V48.7303H131.241V50.6608L132.846 50.6713V50.6687ZM132.587 53.6676C133.066 53.6755 133.433 53.5814 133.686 53.3881C133.939 53.1948 134.066 52.9074 134.066 52.526C134.066 52.1446 133.941 51.8782 133.691 51.7058C133.441 51.5334 133.071 51.4445 132.587 51.4367L131.241 51.4158V53.6572L132.587 53.6676ZM136.043 54.4435V48.7303H137.12V54.4435H136.043Z" fill="#8AA1C4"/>
<path d="M138.276 54.4435L140.835 51.2538L140.824 51.7815L138.39 48.7303H139.592L141.454 51.0814H140.995L142.858 48.7303H144.035L141.566 51.8024L141.577 51.2538L144.157 54.4435H142.934L140.97 51.9435L141.408 52.0088L139.478 54.4461H138.276V54.4435Z" fill="#8AA1C4"/>
<path d="M151.053 54.5298C150.558 54.5298 150.123 54.454 149.745 54.3025C149.367 54.151 149.044 53.9263 148.775 53.6285C148.505 53.3307 148.301 52.9546 148.163 52.4974C148.024 52.0403 147.956 51.5047 147.956 50.8856C147.956 50.3971 148.002 49.9583 148.092 49.5716C148.182 49.185 148.31 48.8376 148.478 48.5372C148.647 48.2367 148.856 47.9729 149.106 47.7508C149.356 47.5288 149.642 47.3433 149.96 47.197C150.278 47.0508 150.629 46.9358 151.01 46.8574L153.723 46.2749L153.881 47.2336L151.379 47.7508C151.23 47.7796 151.05 47.8214 150.841 47.8815C150.632 47.9389 150.42 48.0278 150.202 48.1453C149.985 48.2629 149.783 48.4274 149.596 48.6364C149.408 48.8454 149.259 49.1171 149.147 49.4515C149.036 49.7858 148.978 50.196 148.978 50.6845C148.978 50.8203 148.981 50.9248 148.989 50.9979C148.997 51.0711 149.006 51.1416 149.017 51.2148C149.027 51.2879 149.038 51.395 149.044 51.5387L148.595 51.0972C148.715 50.7028 148.905 50.3579 149.166 50.0628C149.427 49.7676 149.743 49.5403 150.115 49.3783C150.485 49.2164 150.89 49.1354 151.333 49.1354C151.888 49.1354 152.377 49.2503 152.81 49.4802C153.239 49.7101 153.579 50.0262 153.824 50.4285C154.071 50.8308 154.194 51.2905 154.194 51.8078C154.194 52.325 154.066 52.8005 153.808 53.2132C153.549 53.6259 153.185 53.9499 152.714 54.1824C152.244 54.4149 151.689 54.5324 151.053 54.5324V54.5298ZM151.154 53.6677C151.534 53.6677 151.872 53.5868 152.163 53.4248C152.453 53.2628 152.682 53.0434 152.848 52.7665C153.011 52.4896 153.095 52.1787 153.095 51.8339C153.095 51.4891 153.014 51.1834 152.848 50.917C152.682 50.6505 152.456 50.4415 152.163 50.2874C151.872 50.1333 151.526 50.0549 151.129 50.0549C150.754 50.0549 150.42 50.128 150.121 50.2769C149.821 50.4232 149.59 50.6296 149.424 50.8909C149.259 51.1521 149.177 51.4577 149.177 51.8025C149.177 52.1474 149.261 52.4608 149.43 52.7456C149.598 53.0303 149.83 53.255 150.126 53.4196C150.422 53.5841 150.762 53.6677 151.154 53.6677Z" fill="#8AA1C4"/>
<path d="M154.699 54.4331L154.767 53.5606C154.819 53.5685 154.868 53.5763 154.914 53.5815C154.96 53.5868 155.001 53.592 155.036 53.592C155.276 53.592 155.463 53.5136 155.602 53.3543C155.741 53.1949 155.844 52.9859 155.909 52.7247C155.977 52.4635 156.026 52.1657 156.056 51.8365C156.086 51.5074 156.108 51.1756 156.124 50.8438L156.225 48.7305H160.79V54.4436H159.713V49.3339L159.972 49.6369H156.921L157.168 49.3235L157.089 50.9091C157.068 51.4133 157.027 51.8835 156.967 52.3224C156.907 52.7613 156.815 53.1453 156.692 53.4744C156.57 53.8062 156.401 54.0648 156.187 54.2503C155.974 54.4384 155.7 54.5298 155.363 54.5298C155.265 54.5298 155.161 54.5194 155.055 54.5037C154.947 54.4854 154.83 54.4619 154.702 54.4331H154.699Z" fill="#8AA1C4"/>
<path d="M162.877 54.4436V48.7305H163.954V52.8919L167.6 48.7305H168.577V54.4436H167.5V50.2822L163.864 54.4436H162.877Z" fill="#8AA1C4"/>
<path d="M170.984 54.3521C170.555 54.2398 170.171 54.0804 169.834 53.8714L170.16 53.0851C170.443 53.2575 170.769 53.3934 171.136 53.4901C171.503 53.5867 171.873 53.6363 172.246 53.6363C172.588 53.6363 172.888 53.5972 173.138 53.5188C173.388 53.4404 173.581 53.3307 173.714 53.1896C173.847 53.0486 173.915 52.8866 173.915 52.6985C173.915 52.4321 173.793 52.2283 173.546 52.0846C173.298 51.941 172.955 51.8678 172.512 51.8678H171.436V51.1233H172.444C172.705 51.1233 172.934 51.0946 173.129 51.0371C173.323 50.9796 173.475 50.8908 173.584 50.7732C173.692 50.6557 173.747 50.5172 173.747 50.3579C173.747 50.1855 173.684 50.0392 173.556 49.9164C173.429 49.7936 173.252 49.6996 173.023 49.6369C172.795 49.5716 172.529 49.5402 172.221 49.5402C171.922 49.5481 171.618 49.5872 171.308 49.6578C170.998 49.7309 170.682 49.8407 170.359 49.9922L170.068 49.185C170.427 49.0204 170.78 48.8924 171.128 48.8036C171.476 48.7147 171.822 48.6651 172.167 48.6573C172.684 48.6442 173.143 48.6991 173.548 48.8245C173.953 48.9498 174.272 49.1327 174.508 49.3678C174.745 49.6055 174.862 49.8851 174.862 50.209C174.862 50.4807 174.772 50.7236 174.592 50.9378C174.413 51.152 174.174 51.3166 173.875 51.4394C173.575 51.5622 173.23 51.6222 172.841 51.6222L172.888 51.3741C173.554 51.3741 174.076 51.4995 174.459 51.7502C174.84 52.001 175.03 52.3432 175.03 52.7743C175.03 53.1191 174.91 53.4221 174.671 53.686C174.432 53.9472 174.108 54.1536 173.701 54.2999C173.293 54.4462 172.828 54.5219 172.303 54.5219C171.854 54.5219 171.414 54.4671 170.984 54.3547V54.3521Z" fill="#8AA1C4"/>
<path d="M176.667 54.4436V48.7305H177.744V54.4436H176.667ZM177.417 52.0272V51.1442H179.381V52.0272H177.417ZM179.65 51.7059L178.652 51.5753L180.931 48.7305H182.086L179.653 51.7059H179.65ZM180.974 54.4436L178.674 51.6615L179.56 51.1442L182.241 54.4436H180.974Z" fill="#8AA1C4"/>
<path d="M183.375 54.4436V48.7305H184.451V52.8919L188.098 48.7305H189.074V54.4436H187.997V50.2822L184.362 54.4436H183.375Z" fill="#8AA1C4"/>
<path d="M190.218 54.4435L192.777 51.2538L192.766 51.7815L190.332 48.7303H191.534L193.397 51.0814H192.937L194.8 48.7303H195.977L193.508 51.8024L193.519 51.2538L196.1 54.4435H194.876L192.913 51.9435L193.351 52.0088L191.42 54.4461H190.218V54.4435Z" fill="#8AA1C4"/>
<path d="M200.94 21.8026V21.0633L204.16 18.0775C204.445 17.8162 204.657 17.5863 204.799 17.3878C204.937 17.1893 205.033 17.0038 205.082 16.834C205.13 16.6642 205.155 16.4996 205.155 16.3403C205.155 15.9484 205.011 15.6428 204.725 15.4181C204.44 15.1935 204.021 15.0811 203.472 15.0811C203.05 15.0811 202.67 15.1491 202.33 15.2823C201.99 15.4155 201.696 15.6245 201.449 15.9066L200.679 15.2666C200.981 14.8983 201.386 14.6135 201.895 14.415C202.403 14.2165 202.963 14.1172 203.572 14.1172C204.122 14.1172 204.6 14.2034 205.008 14.3732C205.416 14.543 205.729 14.7886 205.952 15.1046C206.175 15.4233 206.286 15.7995 206.286 16.2332C206.286 16.4787 206.253 16.7217 206.185 16.9594C206.117 17.1971 205.99 17.4505 205.802 17.7196C205.614 17.986 205.342 18.2864 204.989 18.6208L202.12 21.2801L201.848 20.857H206.629V21.8026H200.946H200.94Z" fill="#8AA1C4"/>
<path d="M210.77 21.8889C210.152 21.8889 209.6 21.7373 209.114 21.4317C208.627 21.1287 208.244 20.6872 207.961 20.1073C207.678 19.5273 207.537 18.8272 207.537 18.0017C207.537 17.1763 207.678 16.4761 207.961 15.8962C208.244 15.3163 208.627 14.8748 209.114 14.5718C209.6 14.2688 210.152 14.1146 210.77 14.1146C211.387 14.1146 211.928 14.2661 212.42 14.5718C212.91 14.8748 213.293 15.3163 213.573 15.8962C213.85 16.4761 213.992 17.1763 213.992 18.0017C213.992 18.8272 213.853 19.5299 213.573 20.1073C213.293 20.6846 212.91 21.1287 212.42 21.4317C211.931 21.7347 211.381 21.8889 210.77 21.8889ZM210.77 20.9249C211.183 20.9249 211.547 20.8152 211.86 20.5984C212.173 20.3816 212.417 20.055 212.594 19.6214C212.771 19.1877 212.861 18.647 212.861 18.0043C212.861 17.3617 212.771 16.821 212.594 16.3873C212.417 15.9537 212.173 15.6271 211.86 15.4103C211.547 15.1935 211.183 15.0838 210.77 15.0838C210.356 15.0838 209.989 15.1935 209.674 15.4103C209.358 15.6271 209.111 15.9537 208.934 16.3873C208.758 16.821 208.668 17.3617 208.668 18.0043C208.668 18.647 208.758 19.1877 208.934 19.6214C209.111 20.055 209.358 20.3816 209.674 20.5984C209.989 20.8152 210.356 20.9249 210.77 20.9249Z" fill="#8AA1C4"/>
<path d="M214.952 21.8027V21.0635L218.171 18.0776C218.457 17.8163 218.669 17.5865 218.81 17.3879C218.949 17.1894 219.044 17.0039 219.093 16.8341C219.142 16.6643 219.167 16.4997 219.167 16.3404C219.167 15.9485 219.022 15.6429 218.737 15.4182C218.451 15.1936 218.033 15.0813 217.483 15.0813C217.062 15.0813 216.681 15.1492 216.341 15.2824C216.001 15.4156 215.708 15.6246 215.46 15.9067L214.691 15.2667C214.993 14.8984 215.398 14.6137 215.906 14.4151C216.415 14.2166 216.975 14.1173 217.584 14.1173C218.133 14.1173 218.612 14.2035 219.02 14.3733C219.428 14.5431 219.74 14.7887 219.963 15.1048C220.186 15.4235 220.298 15.7996 220.298 16.2333C220.298 16.4788 220.265 16.7218 220.197 16.9595C220.129 17.1972 220.001 17.4506 219.814 17.7197C219.626 17.9861 219.354 18.2866 219.001 18.6209L216.132 21.2803L215.86 20.8571H220.64V21.8027H214.957H214.952Z" fill="#8AA1C4"/>
<path d="M224.778 21.8889C224.161 21.8889 223.609 21.7373 223.122 21.4317C222.635 21.1287 222.252 20.6872 221.969 20.1073C221.686 19.5273 221.545 18.8272 221.545 18.0017C221.545 17.1763 221.686 16.4761 221.969 15.8962C222.252 15.3163 222.635 14.8748 223.122 14.5718C223.609 14.2688 224.161 14.1146 224.778 14.1146C225.395 14.1146 225.936 14.2661 226.428 14.5718C226.918 14.8748 227.301 15.3163 227.581 15.8962C227.859 16.4761 228 17.1763 228 18.0017C228 18.8272 227.861 19.5299 227.581 20.1073C227.301 20.6846 226.918 21.1287 226.428 21.4317C225.939 21.7347 225.39 21.8889 224.778 21.8889ZM224.778 20.9249C225.191 20.9249 225.556 20.8152 225.868 20.5984C226.181 20.3816 226.426 20.055 226.602 19.6214C226.779 19.1877 226.869 18.647 226.869 18.0043C226.869 17.3617 226.779 16.821 226.602 16.3873C226.426 15.9537 226.181 15.6271 225.868 15.4103C225.556 15.1935 225.191 15.0838 224.778 15.0838C224.365 15.0838 223.998 15.1935 223.682 15.4103C223.367 15.6271 223.119 15.9537 222.943 16.3873C222.766 16.821 222.676 17.3617 222.676 18.0043C222.676 18.647 222.766 19.1877 222.943 19.6214C223.119 20.055 223.367 20.3816 223.682 20.5984C223.998 20.8152 224.365 20.9249 224.778 20.9249Z" fill="#8AA1C4"/>
<path d="M67.8081 40.1725L86.8825 0.878174H91.2331L110.308 40.1725H105.658L88.1333 3.29195H89.9225L72.3979 40.1725H67.8081Z" fill="#8AA1C4"/>
<path d="M144.856 10.3059C142.991 7.35402 140.375 5.04213 137.022 3.37547C133.662 1.70882 129.76 0.875488 125.306 0.875488H113.17V4.47265H125.066C128.767 4.47265 131.976 5.15446 134.695 6.5207C137.419 7.88171 139.529 9.76257 141.041 12.1581C142.553 14.5535 143.312 17.3461 143.312 20.5253C143.312 23.7045 142.553 26.4474 141.041 28.8586C139.529 31.2749 137.419 33.1637 134.695 34.5325C131.978 35.8935 128.767 36.5806 125.066 36.5806H113.17V40.1699H125.306C129.757 40.1699 133.662 39.3366 137.022 37.6699C140.375 36.0111 142.993 33.6992 144.856 30.7394C146.727 27.7823 147.659 24.3785 147.659 20.5253C147.659 16.6721 146.727 13.2631 144.856 10.3033V10.3059Z" fill="#8AA1C4"/>
<path d="M172.457 40.5096C169.317 40.5096 166.407 40.0133 163.726 39.0206C161.045 38.0279 158.718 36.6251 156.752 34.8095C154.786 32.994 153.255 30.8806 152.162 28.4668C151.069 26.0531 150.522 23.4068 150.522 20.5228C150.522 17.6388 151.069 14.9925 152.162 12.5788C153.255 10.165 154.786 8.05163 156.752 6.23607C158.718 4.42052 161.032 3.01771 163.696 2.02503C166.358 1.03235 169.279 0.536011 172.457 0.536011C175.636 0.536011 178.496 1.03235 181.158 2.02503C183.82 3.01771 186.134 4.41007 188.103 6.20733C190.069 8.0046 191.6 10.118 192.693 12.55C193.786 14.9821 194.332 17.6388 194.332 20.5202C194.332 23.4016 193.786 26.0583 192.693 28.4903C191.6 30.9224 190.072 33.0384 188.103 34.833C186.137 36.6303 183.82 38.0227 181.158 39.0153C178.496 40.008 175.595 40.5044 172.457 40.5044V40.5096ZM172.457 36.8053C174.962 36.8053 177.276 36.403 179.402 35.5985C181.528 34.7939 183.375 33.6523 184.946 32.1737C186.515 30.6951 187.736 28.9736 188.612 27.0092C189.484 25.0447 189.922 22.8843 189.922 20.5254C189.922 18.1665 189.484 16.0061 188.612 14.0417C187.736 12.0772 186.515 10.3557 184.946 8.87712C183.375 7.39855 181.528 6.25697 179.402 5.45238C177.276 4.64779 174.962 4.2455 172.457 4.2455C169.953 4.2455 167.628 4.64779 165.483 5.45238C163.338 6.25697 161.48 7.39855 159.909 8.87712C158.34 10.3557 157.108 12.0772 156.214 14.0417C155.319 16.0061 154.873 18.1665 154.873 20.5254C154.873 22.8843 155.319 24.9977 156.214 26.9804C157.108 28.9632 158.34 30.6951 159.909 32.1737C161.478 33.6523 163.338 34.7939 165.483 35.5985C167.628 36.403 169.953 36.8053 172.457 36.8053Z" fill="#8AA1C4"/>
<path d="M33.2595 30.7447C35.1248 33.6966 37.7405 36.0085 41.0932 37.6751C44.454 39.3418 48.3559 40.1751 52.8097 40.1751H64.9451V36.578H53.049C49.3484 36.578 46.1398 35.8961 43.4207 34.5299C40.6962 33.1689 38.5862 31.288 37.0744 28.8925C35.5625 26.4971 34.8039 23.7045 34.8039 20.5253C34.8039 17.3461 35.5625 14.6032 37.0744 12.192C38.5862 9.77565 40.6962 7.88695 43.4207 6.5181C46.1371 5.15709 49.3484 4.47005 53.049 4.47005H64.9451V0.880737H52.8097C48.3586 0.880737 44.454 1.71407 41.0932 3.38072C37.7405 5.03954 35.122 7.35143 33.2595 10.3112C31.3887 13.2683 30.4561 16.6722 30.4561 20.5253C30.4561 24.3785 31.3887 27.7875 33.2595 30.7473V30.7447Z" fill="#8AA1C4"/>
</svg>
