<svg width="228" height="56" viewBox="0 0 228 56" fill="none" xmlns="http://www.w3.org/2000/svg">
<path d="M227.026 25.4263L201.301 25.4561L201.303 27.0793L227.028 27.0495L227.026 25.4263Z" fill="#FAFAFA"/>
<path d="M21.5794 25.7844L0 25.8096L0.00174192 27.1709L21.5812 27.1457L21.5794 25.7844Z" fill="#FAFAFA"/>
<path d="M3.69412 21.809C3.05331 21.809 2.49191 21.6845 2.00446 21.4356C1.51974 21.1867 1.14183 20.8444 0.873455 20.4088C0.605081 19.9732 0.473633 19.4753 0.473633 18.91C0.473633 18.3448 0.602342 17.8469 0.862501 17.4113C1.12266 16.9757 1.47866 16.636 1.936 16.3897C2.39059 16.1434 2.90543 16.0215 3.47778 16.0215C4.05013 16.0215 4.57044 16.1434 5.01408 16.3845C5.45772 16.6282 5.80551 16.9679 6.06019 17.4061C6.31213 17.8443 6.43811 18.3577 6.43811 18.9412C6.43811 18.9852 6.43811 19.0345 6.43263 19.0916C6.42989 19.1486 6.42441 19.2031 6.4162 19.2523H1.31983V18.5133H5.84933L5.40843 18.77C5.41664 18.407 5.33722 18.0829 5.17018 17.7977C5.00313 17.5124 4.77583 17.2894 4.48555 17.1287C4.19527 16.9679 3.85843 16.8875 3.47504 16.8875C3.09165 16.8875 2.76303 16.9679 2.47 17.1287C2.17698 17.2894 1.94695 17.515 1.7799 17.8029C1.61285 18.0907 1.5307 18.4226 1.5307 18.7934V18.9645C1.5307 19.3431 1.62381 19.6802 1.80729 19.9758C1.99077 20.2714 2.25092 20.5021 2.58228 20.6655C2.91364 20.8288 3.2943 20.9118 3.72424 20.9118C4.07751 20.9118 4.40065 20.8548 4.69094 20.7407C4.98122 20.6266 5.2359 20.4555 5.45498 20.2273L6.05472 20.8911C5.7836 21.1919 5.44677 21.42 5.04421 21.5756C4.64165 21.7338 4.18979 21.8116 3.69412 21.8116V21.809Z" fill="#FAFAFA"/>
<path d="M9.65823 21.8096C9.15982 21.8096 8.6888 21.7448 8.23968 21.6177C7.79057 21.4881 7.44004 21.3325 7.18262 21.1458L7.63447 20.3316C7.88915 20.495 8.20682 20.635 8.582 20.7491C8.95991 20.8632 9.3433 20.9202 9.73491 20.9202C10.2388 20.9202 10.603 20.8528 10.8248 20.718C11.0467 20.5831 11.1589 20.3939 11.1589 20.1501C11.1589 19.9712 11.0905 19.8338 10.9563 19.7326C10.8194 19.6341 10.6414 19.5589 10.4195 19.5071C10.1977 19.4578 9.95125 19.4137 9.68014 19.3722C9.40902 19.3333 9.13791 19.2841 8.8668 19.2218C8.59569 19.1622 8.34648 19.0766 8.12192 18.9651C7.89463 18.8536 7.71389 18.7007 7.5797 18.5062C7.44277 18.3091 7.37705 18.0472 7.37705 17.7205C7.37705 17.3938 7.47837 17.0775 7.68102 16.8208C7.88367 16.5641 8.17122 16.367 8.54639 16.227C8.91883 16.0869 9.36247 16.0195 9.87457 16.0195C10.2662 16.0195 10.6633 16.0636 11.0658 16.1544C11.4684 16.2425 11.797 16.3696 12.0544 16.5329L11.5916 17.3471C11.3205 17.176 11.0384 17.0593 10.7454 16.9945C10.4524 16.9297 10.1566 16.8985 9.86362 16.8985C9.38985 16.8985 9.03385 16.9711 8.80108 17.1189C8.5683 17.2642 8.45055 17.4534 8.45055 17.6816C8.45055 17.8735 8.51901 18.0213 8.65867 18.125C8.79834 18.2287 8.97908 18.3091 9.2009 18.3662C9.42272 18.4232 9.66918 18.4725 9.94029 18.5114C10.2114 18.5503 10.4825 18.5995 10.7536 18.6618C11.0247 18.7214 11.2712 18.807 11.493 18.9133C11.7148 19.0196 11.8956 19.17 12.0353 19.3619C12.1749 19.5537 12.2434 19.8104 12.2434 20.132C12.2434 20.4742 12.1393 20.7698 11.9257 21.0188C11.7148 21.2677 11.4164 21.4622 11.033 21.6022C10.6496 21.7422 10.1895 21.8096 9.65549 21.8096H9.65823Z" fill="#FAFAFA"/>
<path d="M12.7441 16.9191V16.0738H16.5616V16.9191H12.7441ZM15.6579 21.8094C15.0554 21.8094 14.5872 21.6564 14.2558 21.3504C13.9244 21.0445 13.7574 20.6063 13.7574 20.0358V14.8369H14.8418V19.9943C14.8418 20.3003 14.9213 20.5362 15.0856 20.6996C15.2471 20.863 15.4799 20.9459 15.7811 20.9459C16.1207 20.9459 16.4028 20.8578 16.6273 20.6789L16.9669 21.4178C16.7999 21.5527 16.6027 21.6538 16.3727 21.7186C16.1426 21.7835 15.9044 21.8146 15.6552 21.8146L15.6579 21.8094Z" fill="#FAFAFA"/>
<path d="M18.6514 21.8091C18.4405 21.8091 18.2598 21.7391 18.1091 21.6017C17.9585 21.4617 17.8818 21.2853 17.8818 21.0727C17.8818 20.8601 17.9585 20.6838 18.1091 20.5489C18.2598 20.4141 18.4405 20.3467 18.6514 20.3467C18.8622 20.3467 19.0293 20.4141 19.1772 20.5489C19.325 20.6838 19.3962 20.8601 19.3962 21.0727C19.3962 21.2853 19.3223 21.4642 19.1772 21.6017C19.0293 21.7417 18.854 21.8091 18.6514 21.8091Z" fill="#FAFAFA"/>
<path d="M47.1433 53.9232C46.5326 53.9232 45.9903 53.7988 45.5111 53.5498C45.0319 53.3009 44.6567 52.9586 44.3856 52.523C44.1145 52.0874 43.9775 51.5896 43.9775 51.0243C43.9775 50.459 44.1145 49.9612 44.3856 49.5256C44.6567 49.0899 45.0319 48.7503 45.5111 48.5039C45.9903 48.2576 46.5326 48.1357 47.1433 48.1357C47.6855 48.1357 48.1702 48.2369 48.5947 48.4417C49.0191 48.644 49.3505 48.9473 49.5833 49.3467L48.759 49.8497C48.5618 49.5722 48.3236 49.3674 48.0415 49.2352C47.7594 49.1029 47.4555 49.0381 47.1323 49.0381C46.7407 49.0381 46.3902 49.1211 46.0807 49.2844C45.7713 49.4478 45.5275 49.6785 45.3468 49.9741C45.1661 50.2697 45.0757 50.6224 45.0757 51.0269C45.0757 51.4314 45.1661 51.7866 45.3468 52.0848C45.5275 52.383 45.7713 52.6164 46.0807 52.7797C46.3902 52.9431 46.7407 53.0261 47.1323 53.0261C47.4555 53.0261 47.7594 52.9612 48.0415 52.829C48.3236 52.6968 48.5618 52.4919 48.759 52.2145L49.5833 52.7071C49.3505 53.0987 49.0191 53.402 48.5947 53.6121C48.1702 53.8221 47.6855 53.9284 47.1433 53.9284V53.9232Z" fill="#FAFAFA"/>
<path d="M52.735 53.9232C52.2913 53.9232 51.8997 53.8532 51.5656 53.7106C51.2315 53.568 50.9714 53.3709 50.7906 53.1168C50.6099 52.8627 50.5195 52.5775 50.5195 52.2559C50.5195 51.9344 50.5962 51.6725 50.7523 51.421C50.9084 51.1695 51.1603 50.9724 51.5081 50.822C51.8559 50.6717 52.3297 50.5965 52.9267 50.5965H54.8245V51.3354H52.9705C52.4283 51.3354 52.0641 51.421 51.8751 51.5921C51.6861 51.7633 51.593 51.9707 51.593 52.2119C51.593 52.4893 51.7108 52.7123 51.9436 52.8809C52.1763 53.0494 52.5022 53.1324 52.9157 53.1324C53.3292 53.1324 53.677 53.0468 53.9837 52.8757C54.2877 52.7045 54.5095 52.4556 54.6437 52.1263L54.8573 52.8316C54.7149 53.1661 54.463 53.4332 54.1015 53.6276C53.74 53.8247 53.2854 53.9206 52.735 53.9206V53.9232ZM54.7012 53.8584V52.6604L54.6437 52.4349V50.3916C54.6437 49.956 54.5095 49.6189 54.2439 49.3804C53.9755 49.1418 53.5757 49.0225 53.0417 49.0225C52.6884 49.0225 52.3406 49.077 52.0038 49.1885C51.6642 49.3 51.3794 49.4478 51.1439 49.6319L50.6921 48.8618C51.0015 48.6258 51.3712 48.4469 51.8039 48.3224C52.2366 48.198 52.6912 48.1357 53.1649 48.1357C53.9865 48.1357 54.6191 48.325 55.0627 48.7036C55.5064 49.0822 55.7282 49.6604 55.7282 50.4357V53.8584H54.7012Z" fill="#FAFAFA"/>
<path d="M60.2136 53.9238C59.633 53.9238 59.1154 53.8019 58.6608 53.5607C58.2062 53.3196 57.8447 52.9799 57.5818 52.5443C57.3189 52.1087 57.1875 51.6031 57.1875 51.0248C57.1875 50.4466 57.3189 49.9436 57.5818 49.5105C57.8447 49.0801 58.2062 48.743 58.6608 48.4993C59.1154 48.2555 59.633 48.1363 60.2136 48.1363C60.7174 48.1363 61.1748 48.2426 61.5801 48.4578C61.9854 48.673 62.3112 48.9919 62.5577 49.4198C62.8042 49.8476 62.9247 50.3818 62.9247 51.0248C62.9247 51.6679 62.8069 52.202 62.5687 52.6299C62.3304 53.0577 62.01 53.3792 61.602 53.5971C61.1939 53.8149 60.7311 53.9238 60.2108 53.9238H60.2136ZM60.3067 53.0266C60.6846 53.0266 61.0242 52.9436 61.3281 52.7803C61.6321 52.6169 61.8731 52.3835 62.0511 52.0802C62.2291 51.7768 62.3167 51.4267 62.3167 51.0274C62.3167 50.6281 62.2291 50.2703 62.0511 49.9747C61.8731 49.6791 61.6321 49.4483 61.3281 49.285C61.0242 49.1216 60.6818 49.0386 60.3067 49.0386C59.9315 49.0386 59.581 49.1216 59.2797 49.285C58.9785 49.4483 58.7375 49.6791 58.5568 49.9747C58.376 50.2703 58.2856 50.6229 58.2856 51.0274C58.2856 51.4319 58.376 51.7768 58.5568 52.0802C58.7375 52.3835 58.9785 52.6169 59.2797 52.7803C59.581 52.9436 59.9233 53.0266 60.3067 53.0266ZM62.3496 53.8589V52.3291L62.4181 51.0119L62.3058 49.6972V45.9219H63.3902V53.8589H62.3496Z" fill="#FAFAFA"/>
<path d="M68.0108 53.9236C67.4083 53.9236 66.8743 53.7991 66.406 53.5502C65.9377 53.3013 65.5707 52.9564 65.2996 52.5182C65.0285 52.08 64.8916 51.5821 64.8916 51.0272C64.8916 50.4723 65.0285 49.9641 65.2996 49.5285C65.5707 49.0929 65.9405 48.7532 66.406 48.5069C66.8743 48.2606 67.4083 48.1387 68.0108 48.1387C68.6132 48.1387 69.139 48.2606 69.61 48.5069C70.0811 48.7532 70.4508 49.0903 70.7164 49.5233C70.982 49.9563 71.1162 50.4568 71.1162 51.0272C71.1162 51.5977 70.982 52.0904 70.7164 52.526C70.448 52.9616 70.0811 53.3039 69.61 53.5528C69.139 53.8017 68.605 53.9262 68.0108 53.9262V53.9236ZM68.0108 53.0264C68.3942 53.0264 68.7392 52.9434 69.0459 52.7801C69.3499 52.6167 69.5909 52.3834 69.7634 52.08C69.9359 51.7766 70.0236 51.4266 70.0236 51.0272C70.0236 50.6279 69.9359 50.2701 69.7634 49.9745C69.5909 49.6789 69.3499 49.4481 69.0459 49.2848C68.7419 49.1214 68.3969 49.0384 68.0108 49.0384C67.6246 49.0384 67.2851 49.1214 66.9838 49.2848C66.6826 49.4481 66.4416 49.6789 66.2609 49.9745C66.0801 50.2701 65.9897 50.6227 65.9897 51.0272C65.9897 51.4317 66.0801 51.7766 66.2609 52.08C66.4416 52.3834 66.6826 52.6167 66.9838 52.7801C67.2851 52.9434 67.6274 53.0264 68.0108 53.0264Z" fill="#FAFAFA"/>
<path d="M75.1385 53.9235C74.6264 53.9235 74.1772 53.8353 73.7884 53.6564C73.3995 53.4775 73.0983 53.2052 72.8847 52.837C72.6711 52.4688 72.5615 52.0073 72.5615 51.4524V48.1904H73.646V51.3357C73.646 51.8932 73.7884 52.3081 74.0704 52.5881C74.3525 52.8655 74.7496 53.0056 75.2617 53.0056C75.6396 53.0056 75.9655 52.933 76.2448 52.7852C76.5242 52.64 76.7378 52.4247 76.8884 52.1421C77.039 51.8595 77.1129 51.5198 77.1129 51.1205V48.1904H78.1974V53.8612H77.1704V52.3314L77.3402 52.7385C77.1458 53.1171 76.85 53.4101 76.4584 53.6149C76.0668 53.8224 75.6259 53.9261 75.1357 53.9261L75.1385 53.9235Z" fill="#FAFAFA"/>
<path d="M80.2686 53.8587V48.1879H81.3092V49.7281L81.2079 49.3418C81.3722 48.9502 81.6515 48.6495 82.0431 48.442C82.4347 48.2346 82.9167 48.1309 83.489 48.1309V49.1265C83.4425 49.1188 83.4014 49.1162 83.3603 49.1162H83.2426C82.662 49.1162 82.2047 49.2795 81.8651 49.6089C81.5255 49.9382 81.3557 50.4101 81.3557 51.0324V53.8561H80.2713L80.2686 53.8587Z" fill="#FAFAFA"/>
<path d="M85.3648 47.0987C85.1539 47.0987 84.9787 47.0339 84.839 46.9068C84.6993 46.7772 84.6309 46.6216 84.6309 46.4349C84.6309 46.2482 84.6993 46.0823 84.839 45.9526C84.9787 45.823 85.1539 45.7607 85.3648 45.7607C85.5756 45.7607 85.7509 45.823 85.8906 45.9474C86.0302 46.0719 86.0987 46.2275 86.0987 46.4116C86.0987 46.5957 86.0302 46.7668 85.896 46.8991C85.7619 47.0313 85.5839 47.0961 85.3648 47.0961V47.0987ZM84.8226 53.8586V48.1878H85.907V53.8586H84.8226Z" fill="#FAFAFA"/>
<path d="M91.0137 55.9354V48.1902H92.0543V49.72L91.9858 51.0347L92.0981 52.3493V55.9328H91.0137V55.9354ZM94.1876 53.9232C93.6892 53.9232 93.2373 53.8143 92.8266 53.5965C92.4158 53.3787 92.0872 53.0572 91.8434 52.6293C91.5997 52.2015 91.4765 51.6673 91.4765 51.0243C91.4765 50.3812 91.5942 49.8471 91.8325 49.4192C92.0707 48.9914 92.3939 48.6699 92.8047 48.4573C93.2154 48.2446 93.6755 48.1357 94.1876 48.1357C94.7736 48.1357 95.294 48.2576 95.7458 48.4987C96.1977 48.7399 96.5564 49.077 96.8193 49.51C97.0822 49.943 97.2137 50.4461 97.2137 51.0243C97.2137 51.6025 97.0822 52.1082 96.8193 52.5438C96.5564 52.9794 96.1977 53.3165 95.7458 53.5602C95.294 53.804 94.7736 53.9232 94.1876 53.9232ZM94.0972 53.0261C94.4806 53.0261 94.8257 52.9431 95.1297 52.7797C95.4336 52.6164 95.6746 52.383 95.8526 52.0796C96.0306 51.7763 96.1183 51.4262 96.1183 51.0269C96.1183 50.6276 96.0306 50.2697 95.8526 49.9741C95.6746 49.6785 95.4336 49.4478 95.1297 49.2844C94.8257 49.1211 94.4806 49.0381 94.0972 49.0381C93.7138 49.0381 93.3797 49.1211 93.0758 49.2844C92.7718 49.4478 92.5308 49.6785 92.3528 49.9741C92.1748 50.2697 92.0872 50.6224 92.0872 51.0269C92.0872 51.4314 92.1748 51.7763 92.3528 52.0796C92.5308 52.383 92.7718 52.6164 93.0758 52.7797C93.3797 52.9431 93.7221 53.0261 94.0972 53.0261Z" fill="#FAFAFA"/>
<path d="M101.385 53.9232C100.744 53.9232 100.182 53.7988 99.6949 53.5498C99.2102 53.3009 98.8323 52.9586 98.5639 52.523C98.2955 52.0874 98.1641 51.5896 98.1641 51.0243C98.1641 50.459 98.2928 49.9612 98.5529 49.5256C98.8131 49.0899 99.1691 48.7503 99.6264 48.5039C100.081 48.2576 100.596 48.1357 101.168 48.1357C101.741 48.1357 102.261 48.2576 102.705 48.4987C103.148 48.7399 103.496 49.0822 103.751 49.5204C104.003 49.9586 104.129 50.472 104.129 51.0554C104.129 51.0995 104.129 51.1488 104.123 51.2058C104.12 51.2628 104.115 51.3173 104.107 51.3666H99.0103V50.6276H103.54L103.099 50.8843C103.107 50.5213 103.028 50.1971 102.861 49.9119C102.694 49.6267 102.466 49.4037 102.176 49.2429C101.886 49.0822 101.549 49.0018 101.165 49.0018C100.782 49.0018 100.453 49.0822 100.16 49.2429C99.8674 49.4037 99.6374 49.6293 99.4703 49.9171C99.3033 50.2049 99.2211 50.5368 99.2211 50.9076V51.0787C99.2211 51.4573 99.3142 51.7944 99.4977 52.09C99.6812 52.3856 99.9414 52.6164 100.273 52.7797C100.604 52.9431 100.985 53.0261 101.415 53.0261C101.768 53.0261 102.091 52.969 102.381 52.8549C102.672 52.7408 102.926 52.5697 103.145 52.3415L103.745 53.0053C103.474 53.3061 103.137 53.5343 102.735 53.6899C102.332 53.848 101.88 53.9258 101.385 53.9258V53.9232Z" fill="#FAFAFA"/>
<path d="M108.832 48.1361C109.322 48.1361 109.752 48.2242 110.124 48.4031C110.497 48.582 110.79 48.8517 111 49.2173C111.211 49.5803 111.318 50.0419 111.318 50.5968V53.8587H110.234V50.7135C110.234 50.1637 110.091 49.7515 109.809 49.4714C109.527 49.194 109.13 49.054 108.618 49.054C108.235 49.054 107.898 49.1266 107.613 49.2692C107.325 49.4118 107.106 49.6218 106.953 49.8993C106.8 50.1767 106.72 50.5242 106.72 50.9364V53.8561H105.636V48.1853H106.676V49.7152L106.507 49.3081C106.701 48.9373 107.005 48.6495 107.41 48.442C107.818 48.2346 108.292 48.1309 108.834 48.1309L108.832 48.1361Z" fill="#FAFAFA"/>
<path d="M112.468 49.0359V48.1906H116.285V49.0359H112.468ZM115.384 53.9236C114.782 53.9236 114.314 53.7707 113.982 53.4647C113.651 53.1587 113.484 52.7205 113.484 52.1501V46.9512H114.568V52.1086C114.568 52.4145 114.648 52.6505 114.812 52.8139C114.974 52.9772 115.206 53.0602 115.508 53.0602C115.847 53.0602 116.129 52.972 116.354 52.7931L116.693 53.5321C116.526 53.6669 116.329 53.7681 116.099 53.8329C115.869 53.8977 115.631 53.9288 115.382 53.9288L115.384 53.9236Z" fill="#FAFAFA"/>
<path d="M118.005 53.8587V48.1879H119.046V49.7281L118.944 49.3418C119.109 48.9502 119.388 48.6495 119.779 48.442C120.171 48.2346 120.653 48.1309 121.225 48.1309V49.1265C121.179 49.1188 121.138 49.1162 121.097 49.1162H120.979C120.398 49.1162 119.941 49.2795 119.601 49.6089C119.262 49.9382 119.092 50.4101 119.092 51.0324V53.8561H118.008L118.005 53.8587Z" fill="#FAFAFA"/>
<path d="M125.155 53.9235C124.643 53.9235 124.194 53.8353 123.805 53.6564C123.416 53.4775 123.115 53.2052 122.901 52.837C122.688 52.4688 122.578 52.0073 122.578 51.4524V48.1904H123.663V51.3357C123.663 51.8932 123.805 52.3081 124.087 52.5881C124.369 52.8655 124.766 53.0056 125.278 53.0056C125.656 53.0056 125.982 52.933 126.261 52.7852C126.541 52.64 126.754 52.4247 126.905 52.1421C127.056 51.8595 127.13 51.5198 127.13 51.1205V48.1904H128.214V53.8612H127.187V52.3314L127.357 52.7385C127.162 53.1171 126.867 53.4101 126.475 53.6149C126.083 53.8224 125.643 53.9261 125.152 53.9261L125.155 53.9235Z" fill="#FAFAFA"/>
<path d="M135.933 53.9232C135.323 53.9232 134.78 53.7988 134.301 53.5498C133.822 53.3009 133.447 52.9586 133.176 52.523C132.905 52.0874 132.768 51.5896 132.768 51.0243C132.768 50.459 132.905 49.9612 133.176 49.5256C133.447 49.0899 133.822 48.7503 134.301 48.5039C134.78 48.2576 135.323 48.1357 135.933 48.1357C136.476 48.1357 136.96 48.2369 137.385 48.4417C137.809 48.644 138.141 48.9473 138.373 49.3467L137.549 49.8497C137.352 49.5722 137.114 49.3674 136.832 49.2352C136.549 49.1029 136.245 49.0381 135.922 49.0381C135.531 49.0381 135.18 49.1211 134.871 49.2844C134.561 49.4478 134.318 49.6785 134.137 49.9741C133.956 50.2697 133.866 50.6224 133.866 51.0269C133.866 51.4314 133.956 51.7866 134.137 52.0848C134.318 52.383 134.561 52.6164 134.871 52.7797C135.18 52.9431 135.531 53.0261 135.922 53.0261C136.245 53.0261 136.549 52.9612 136.832 52.829C137.114 52.6968 137.352 52.4919 137.549 52.2145L138.373 52.7071C138.141 53.0987 137.809 53.402 137.385 53.6121C136.96 53.8221 136.476 53.9284 135.933 53.9284V53.9232Z" fill="#FAFAFA"/>
<path d="M142.35 53.9232C141.71 53.9232 141.148 53.7988 140.661 53.5498C140.176 53.3009 139.798 52.9586 139.53 52.523C139.261 52.0874 139.13 51.5896 139.13 51.0243C139.13 50.459 139.259 49.9612 139.519 49.5256C139.779 49.0899 140.135 48.7503 140.592 48.5039C141.047 48.2576 141.562 48.1357 142.134 48.1357C142.706 48.1357 143.227 48.2576 143.67 48.4987C144.114 48.7399 144.462 49.0822 144.716 49.5204C144.968 49.9586 145.094 50.472 145.094 51.0554C145.094 51.0995 145.094 51.1488 145.089 51.2058C145.086 51.2628 145.081 51.3173 145.072 51.3666H139.976V50.6276H144.506L144.065 50.8843C144.073 50.5213 143.993 50.1971 143.826 49.9119C143.659 49.6267 143.432 49.4037 143.142 49.2429C142.852 49.0822 142.515 49.0018 142.131 49.0018C141.748 49.0018 141.419 49.0822 141.126 49.2429C140.833 49.4037 140.603 49.6293 140.436 49.9171C140.269 50.2049 140.187 50.5368 140.187 50.9076V51.0787C140.187 51.4573 140.28 51.7944 140.464 52.09C140.647 52.3856 140.907 52.6164 141.239 52.7797C141.57 52.9431 141.951 53.0261 142.38 53.0261C142.734 53.0261 143.057 52.969 143.347 52.8549C143.637 52.7408 143.892 52.5697 144.111 52.3415L144.711 53.0053C144.44 53.3061 144.103 53.5343 143.7 53.6899C143.298 53.848 142.846 53.9258 142.35 53.9258V53.9232Z" fill="#FAFAFA"/>
<path d="M147.142 47.0987C146.931 47.0987 146.756 47.0339 146.616 46.9068C146.477 46.7772 146.408 46.6216 146.408 46.4349C146.408 46.2482 146.477 46.0823 146.616 45.9526C146.756 45.823 146.931 45.7607 147.142 45.7607C147.353 45.7607 147.528 45.823 147.668 45.9474C147.808 46.0719 147.876 46.2275 147.876 46.4116C147.876 46.5957 147.808 46.7668 147.673 46.8991C147.539 47.0313 147.361 47.0961 147.142 47.0961V47.0987ZM146.6 53.8586V48.1878H147.684V53.8586H146.6Z" fill="#FAFAFA"/>
<path d="M155.265 53.9238C154.685 53.9238 154.167 53.8019 153.713 53.5607C153.258 53.3196 152.897 52.9799 152.634 52.5443C152.371 52.1087 152.239 51.6031 152.239 51.0248C152.239 50.4466 152.371 49.9436 152.634 49.5105C152.897 49.0801 153.258 48.743 153.713 48.4993C154.167 48.2555 154.685 48.1363 155.265 48.1363C155.769 48.1363 156.227 48.2426 156.632 48.4578C157.037 48.673 157.363 48.9919 157.609 49.4198C157.856 49.8476 157.976 50.3818 157.976 51.0248C157.976 51.6679 157.859 52.202 157.62 52.6299C157.382 53.0577 157.062 53.3792 156.654 53.5971C156.246 53.8149 155.783 53.9238 155.263 53.9238H155.265ZM155.356 53.0266C155.734 53.0266 156.073 52.9436 156.377 52.7803C156.681 52.6169 156.922 52.3835 157.1 52.0802C157.278 51.7768 157.366 51.4267 157.366 51.0274C157.366 50.6281 157.278 50.2703 157.1 49.9747C156.922 49.6791 156.681 49.4483 156.377 49.285C156.073 49.1216 155.731 49.0386 155.356 49.0386C154.981 49.0386 154.63 49.1216 154.329 49.285C154.028 49.4483 153.787 49.6791 153.606 49.9747C153.425 50.2703 153.335 50.6229 153.335 51.0274C153.335 51.4319 153.425 51.7768 153.606 52.0802C153.787 52.3835 154.028 52.6169 154.329 52.7803C154.63 52.9436 154.972 53.0266 155.356 53.0266ZM157.401 53.8589V52.3291L157.47 51.0119L157.358 49.6972V45.9219H158.442V53.8589H157.401Z" fill="#FAFAFA"/>
<path d="M160.496 53.8587V48.1879H161.537V49.7281L161.435 49.3418C161.6 48.9502 161.879 48.6495 162.271 48.442C162.662 48.2346 163.144 48.1309 163.717 48.1309V49.1265C163.67 49.1188 163.629 49.1162 163.588 49.1162H163.47C162.89 49.1162 162.432 49.2795 162.093 49.6089C161.753 49.9382 161.583 50.4101 161.583 51.0324V53.8561H160.499L160.496 53.8587Z" fill="#FAFAFA"/>
<path d="M166.359 53.9232C165.915 53.9232 165.524 53.8532 165.19 53.7106C164.856 53.568 164.595 53.3709 164.415 53.1168C164.234 52.8627 164.144 52.5775 164.144 52.2559C164.144 51.9344 164.22 51.6725 164.376 51.421C164.532 51.1695 164.784 50.9724 165.132 50.822C165.48 50.6717 165.954 50.5965 166.551 50.5965H168.449V51.3354H166.595C166.052 51.3354 165.688 51.421 165.499 51.5921C165.31 51.7633 165.217 51.9707 165.217 52.2119C165.217 52.4893 165.335 52.7123 165.568 52.8809C165.8 53.0494 166.126 53.1324 166.54 53.1324C166.953 53.1324 167.301 53.0468 167.608 52.8757C167.912 52.7045 168.134 52.4556 168.268 52.1263L168.481 52.8316C168.339 53.1661 168.087 53.4332 167.726 53.6276C167.364 53.8247 166.909 53.9206 166.359 53.9206V53.9232ZM168.325 53.8584V52.6604L168.268 52.4349V50.3916C168.268 49.956 168.134 49.6189 167.868 49.3804C167.6 49.1418 167.2 49.0225 166.666 49.0225C166.312 49.0225 165.965 49.077 165.628 49.1885C165.288 49.3 165.003 49.4478 164.768 49.6319L164.316 48.8618C164.626 48.6258 164.995 48.4469 165.428 48.3224C165.861 48.198 166.315 48.1357 166.789 48.1357C167.611 48.1357 168.243 48.325 168.687 48.7036C169.13 49.0822 169.352 49.6604 169.352 50.4357V53.8584H168.325Z" fill="#FAFAFA"/>
<path d="M173.85 53.6254C173.27 53.6254 172.752 53.5087 172.298 53.2779C171.84 53.0472 171.479 52.723 171.213 52.3108C170.945 51.8985 170.813 51.4188 170.813 50.8768C170.813 50.3349 170.948 49.8474 171.213 49.4377C171.482 49.0281 171.843 48.7091 172.298 48.4809C172.752 48.2528 173.27 48.1387 173.85 48.1387C174.363 48.1387 174.831 48.2372 175.253 48.4317C175.674 48.6287 176.011 48.9295 176.263 49.3366C176.515 49.7437 176.641 50.2571 176.641 50.8768C176.641 51.4966 176.515 51.9996 176.263 52.4067C176.011 52.8138 175.674 53.1172 175.253 53.322C174.831 53.5243 174.363 53.628 173.85 53.628V53.6254ZM173.985 56.0005C173.434 56.0005 172.903 55.9279 172.385 55.7801C171.871 55.6349 171.449 55.4249 171.126 55.1552L171.646 54.3644C171.925 54.5926 172.268 54.7715 172.673 54.9037C173.078 55.036 173.505 55.1008 173.949 55.1008C174.656 55.1008 175.176 54.9426 175.507 54.6289C175.839 54.3151 176.006 53.838 176.006 53.1949V51.997L176.118 50.8743L176.06 49.7411V48.1905H177.087V53.0912C177.087 54.0895 176.824 54.8233 176.296 55.2953C175.767 55.7672 174.998 56.0005 173.979 56.0005H173.985ZM173.974 52.7256C174.374 52.7256 174.727 52.6478 175.036 52.4897C175.346 52.3341 175.587 52.1163 175.765 51.8362C175.943 51.5588 176.03 51.2373 176.03 50.8743C176.03 50.5112 175.943 50.1897 175.765 49.9123C175.587 49.6348 175.346 49.4196 175.036 49.264C174.727 49.111 174.374 49.0332 173.974 49.0332C173.574 49.0332 173.218 49.111 172.906 49.264C172.593 49.417 172.347 49.6322 172.172 49.9123C171.994 50.1897 171.906 50.5112 171.906 50.8743C171.906 51.2373 171.994 51.5588 172.172 51.8362C172.35 52.1137 172.593 52.3315 172.906 52.4897C173.218 52.6478 173.574 52.7256 173.974 52.7256Z" fill="#FAFAFA"/>
<path d="M179.7 47.0987C179.489 47.0987 179.314 47.0339 179.174 46.9068C179.034 46.7772 178.966 46.6216 178.966 46.4349C178.966 46.2482 179.034 46.0823 179.174 45.9526C179.314 45.823 179.489 45.7607 179.7 45.7607C179.911 45.7607 180.086 45.823 180.226 45.9474C180.365 46.0719 180.434 46.2275 180.434 46.4116C180.434 46.5957 180.365 46.7668 180.231 46.8991C180.097 47.0313 179.919 47.0961 179.7 47.0961V47.0987ZM179.158 53.8586V48.1878H180.242V53.8586H179.158Z" fill="#FAFAFA"/>
<path d="M200.944 21.6889V20.9603L204.164 18.0173C204.449 17.7606 204.662 17.535 204.802 17.338C204.942 17.1409 205.035 16.9594 205.084 16.7934C205.133 16.6249 205.158 16.4641 205.158 16.3059C205.158 15.9196 205.016 15.6188 204.728 15.3958C204.441 15.1754 204.024 15.0639 203.474 15.0639C203.052 15.0639 202.672 15.1287 202.332 15.261C201.992 15.3932 201.699 15.5981 201.45 15.8755L200.681 15.2454C200.982 14.8824 201.387 14.6024 201.897 14.4053C202.406 14.2082 202.965 14.1123 203.575 14.1123C204.126 14.1123 204.602 14.1953 205.01 14.3638C205.418 14.5324 205.73 14.7709 205.952 15.0847C206.174 15.3984 206.286 15.7692 206.286 16.197C206.286 16.4408 206.254 16.6793 206.185 16.9127C206.117 17.1487 205.991 17.3976 205.802 17.6621C205.613 17.9266 205.342 18.2221 204.988 18.5489L202.118 21.1703L201.847 20.7529H206.626V21.6838H200.944V21.6889Z" fill="#FAFAFA"/>
<path d="M210.771 21.7745C210.155 21.7745 209.602 21.6242 209.117 21.326C208.633 21.0252 208.247 20.5922 207.965 20.0217C207.682 19.4513 207.54 18.7589 207.54 17.9473C207.54 17.1357 207.682 16.4434 207.965 15.873C208.247 15.3025 208.63 14.8669 209.117 14.5687C209.602 14.2679 210.155 14.1201 210.771 14.1201C211.388 14.1201 211.933 14.2705 212.42 14.5687C212.908 14.8669 213.294 15.3025 213.573 15.873C213.852 16.4434 213.992 17.1357 213.992 17.9473C213.992 18.7589 213.852 19.4513 213.573 20.0217C213.294 20.5922 212.91 21.0278 212.42 21.326C211.93 21.6242 211.382 21.7745 210.771 21.7745ZM210.771 20.8229C211.185 20.8229 211.549 20.7166 211.861 20.5014C212.174 20.2862 212.42 19.9672 212.595 19.5394C212.773 19.1116 212.861 18.58 212.861 17.9447C212.861 17.3095 212.773 16.7779 212.595 16.3501C212.417 15.9222 212.174 15.6007 211.861 15.3881C211.549 15.1729 211.185 15.0665 210.771 15.0665C210.358 15.0665 209.991 15.1729 209.676 15.3881C209.361 15.6033 209.112 15.9222 208.937 16.3501C208.761 16.7779 208.671 17.3095 208.671 17.9447C208.671 18.58 208.759 19.1116 208.937 19.5394C209.115 19.9672 209.361 20.2888 209.676 20.5014C209.991 20.714 210.358 20.8229 210.771 20.8229Z" fill="#FAFAFA"/>
<path d="M214.951 21.6889V20.9603L218.172 18.0173C218.457 17.7606 218.67 17.535 218.81 17.338C218.95 17.1409 219.043 16.9594 219.092 16.7934C219.141 16.6249 219.166 16.4641 219.166 16.3059C219.166 15.9196 219.024 15.6188 218.736 15.3958C218.448 15.1754 218.032 15.0639 217.482 15.0639C217.06 15.0639 216.679 15.1287 216.34 15.261C216 15.3932 215.707 15.5981 215.458 15.8755L214.688 15.2454C214.99 14.8824 215.395 14.6024 215.904 14.4053C216.414 14.2082 216.972 14.1123 217.583 14.1123C218.134 14.1123 218.61 14.1953 219.018 14.3638C219.426 14.5324 219.738 14.7709 219.96 15.0847C220.182 15.3984 220.294 15.7692 220.294 16.197C220.294 16.4408 220.261 16.6793 220.193 16.9127C220.124 17.1487 219.998 17.3976 219.809 17.6621C219.621 17.9266 219.349 18.2221 218.996 18.5489L216.126 21.1703L215.855 20.7529H220.634V21.6838H214.951V21.6889Z" fill="#FAFAFA"/>
<path d="M224.779 21.7745C224.163 21.7745 223.61 21.6242 223.125 21.326C222.641 21.0252 222.254 20.5922 221.972 20.0217C221.69 19.4513 221.548 18.7589 221.548 17.9473C221.548 17.1357 221.69 16.4434 221.972 15.873C222.254 15.3025 222.638 14.8669 223.125 14.5687C223.61 14.2679 224.163 14.1201 224.779 14.1201C225.395 14.1201 225.94 14.2705 226.428 14.5687C226.915 14.8669 227.301 15.3025 227.581 15.873C227.86 16.4434 228 17.1357 228 17.9473C228 18.7589 227.86 19.4513 227.581 20.0217C227.301 20.5922 226.918 21.0278 226.428 21.326C225.938 21.6242 225.39 21.7745 224.779 21.7745ZM224.779 20.8229C225.193 20.8229 225.557 20.7166 225.869 20.5014C226.181 20.2862 226.428 19.9672 226.603 19.5394C226.781 19.1116 226.869 18.58 226.869 17.9447C226.869 17.3095 226.781 16.7779 226.603 16.3501C226.425 15.9222 226.181 15.6007 225.869 15.3881C225.557 15.1729 225.193 15.0665 224.779 15.0665C224.366 15.0665 223.999 15.1729 223.684 15.3881C223.369 15.6033 223.12 15.9222 222.945 16.3501C222.769 16.7779 222.679 17.3095 222.679 17.9447C222.679 18.58 222.766 19.1116 222.945 19.5394C223.123 19.9672 223.369 20.2888 223.684 20.5014C223.999 20.714 224.366 20.8229 224.779 20.8229Z" fill="#FAFAFA"/>
<path d="M67.4912 39.3432L86.7019 0.339844H91.0835L110.294 39.3432H105.611L87.9616 2.73574H89.7635L72.1138 39.3432H67.4912Z" fill="#FAFAFA"/>
<path d="M145.09 9.69751C143.211 6.76746 140.577 4.47269 137.2 2.81838C133.815 1.16407 129.885 0.336914 125.4 0.336914H113.178V3.90742H125.159C128.886 3.90742 132.117 4.58419 134.856 5.94031C137.6 7.29124 139.725 9.15817 141.247 11.5359C142.77 13.9137 143.534 16.6855 143.534 19.8412C143.534 22.9968 142.77 25.7194 141.247 28.1127C139.725 30.5112 137.6 32.3859 134.856 33.7447C132.12 35.0956 128.886 35.7775 125.159 35.7775H113.178V39.3403H125.4C129.883 39.3403 133.815 38.5131 137.2 36.8588C140.577 35.2123 143.214 32.9175 145.09 29.9797C146.974 27.0444 147.913 23.6658 147.913 19.8412C147.913 16.0166 146.974 12.6327 145.09 9.69492V9.69751Z" fill="#FAFAFA"/>
<path d="M172.887 39.6775C169.724 39.6775 166.794 39.1849 164.094 38.1995C161.394 37.2142 159.05 35.8218 157.07 34.0197C155.09 32.2176 153.548 30.1199 152.447 27.724C151.346 25.3281 150.796 22.7014 150.796 19.8388C150.796 16.9761 151.346 14.3494 152.447 11.9536C153.548 9.55765 155.09 7.45995 157.07 5.65784C159.05 3.85573 161.38 2.46331 164.064 1.47798C166.745 0.492658 169.686 0 172.887 0C176.089 0 178.97 0.492658 181.651 1.47798C184.332 2.46331 186.662 3.84536 188.645 5.62932C190.625 7.41328 192.167 9.51098 193.267 11.925C194.368 14.3391 194.919 16.9761 194.919 19.8362C194.919 22.6962 194.368 25.3332 193.267 27.7473C192.167 30.1613 190.628 32.2616 188.645 34.043C186.665 35.827 184.332 37.209 181.651 38.1943C178.97 39.1797 176.048 39.6723 172.887 39.6723V39.6775ZM172.887 35.9981C175.41 35.9981 177.74 35.5988 179.882 34.8001C182.023 34.0015 183.883 32.8684 185.465 31.4008C187.046 29.9332 188.275 28.2244 189.157 26.2745C190.036 24.3246 190.477 22.1802 190.477 19.8388C190.477 17.4973 190.036 15.3529 189.157 13.403C188.275 11.4531 187.046 9.74435 185.465 8.27673C183.883 6.80912 182.023 5.67599 179.882 4.87736C177.74 4.07873 175.41 3.67941 172.887 3.67941C170.365 3.67941 168.024 4.07873 165.863 4.87736C163.703 5.67599 161.832 6.80912 160.249 8.27673C158.669 9.74435 157.429 11.4531 156.528 13.403C155.627 15.3529 155.178 17.4973 155.178 19.8388C155.178 22.1802 155.627 24.2779 156.528 26.246C157.429 28.214 158.669 29.9332 160.249 31.4008C161.829 32.8684 163.703 34.0015 165.863 34.8001C168.024 35.5988 170.365 35.9981 172.887 35.9981Z" fill="#FAFAFA"/>
<path d="M32.6955 29.9826C34.5741 32.9126 37.2085 35.2074 40.5851 36.8617C43.9699 38.516 47.8997 39.3432 52.3854 39.3432H64.6073V35.7727H52.6264C48.8992 35.7727 45.6678 35.0959 42.9293 33.7398C40.1853 32.3889 38.0602 30.5219 36.5376 28.1442C35.015 25.7664 34.2509 22.9946 34.2509 19.8389C34.2509 16.6833 35.015 13.9607 36.5376 11.5674C38.0602 9.16888 40.1853 7.29417 42.9293 5.93545C45.6651 4.58452 48.8992 3.90257 52.6264 3.90257H64.6073V0.339844H52.3854C47.9024 0.339844 43.9699 1.167 40.5851 2.82131C37.2085 4.46784 34.5714 6.76261 32.6955 9.70044C30.8114 12.6357 29.8721 16.0143 29.8721 19.8389C29.8721 23.6635 30.8114 27.0474 32.6955 29.9852V29.9826Z" fill="#FAFAFA"/>
</svg>
