<svg width="196" height="48" viewBox="0 0 196 48" fill="none" xmlns="http://www.w3.org/2000/svg">
<g id="CADO-ro-white">
<g id="Group">
<path id="Vector" d="M195.163 21.7948L173.048 21.8203L173.049 23.2116L195.164 23.1861L195.163 21.7948Z" fill="#1A2433"/>
<path id="Vector_2" d="M18.5505 22.1015L-0.000244141 22.123L0.0012533 23.2899L18.552 23.2683L18.5505 22.1015Z" fill="#1A2433"/>
<g id="Group_2">
<path id="Vector_3" d="M3.17547 18.6931C2.6246 18.6931 2.142 18.5864 1.72296 18.3731C1.30627 18.1597 0.981397 17.8663 0.750689 17.493C0.519982 17.1196 0.406982 16.6928 0.406982 16.2083C0.406982 15.7238 0.517627 15.2971 0.741272 14.9237C0.964917 14.5503 1.27096 14.2592 1.6641 14.048C2.05489 13.8369 2.49747 13.7324 2.98949 13.7324C3.48151 13.7324 3.9288 13.8369 4.31018 14.0436C4.69155 14.2525 4.99053 14.5437 5.20946 14.9193C5.42604 15.2949 5.53434 15.7349 5.53434 16.235C5.53434 16.2728 5.53434 16.315 5.52963 16.3639C5.52727 16.4128 5.52257 16.4595 5.5155 16.5017H1.13442V15.8683H5.02819L4.64918 16.0883C4.65624 15.7772 4.58796 15.4993 4.44436 15.2549C4.30076 15.0104 4.10536 14.8192 3.85582 14.6815C3.60628 14.5437 3.31672 14.4748 2.98714 14.4748C2.65755 14.4748 2.37506 14.5437 2.12316 14.6815C1.87127 14.8192 1.67352 15.0126 1.52992 15.2593C1.38631 15.506 1.31569 15.7905 1.31569 16.1083V16.255C1.31569 16.5795 1.39573 16.8684 1.55346 17.1218C1.71118 17.3752 1.93483 17.573 2.21968 17.713C2.50454 17.853 2.83176 17.9241 3.20137 17.9241C3.50505 17.9241 3.78284 17.8752 4.03238 17.7774C4.28192 17.6797 4.50086 17.533 4.6892 17.3374L5.20476 17.9064C4.97169 18.1642 4.68213 18.3597 4.33607 18.4931C3.99001 18.6287 3.60157 18.6954 3.17547 18.6954V18.6931Z" fill="#1A2433"/>
<path id="Vector_4" d="M8.30272 18.6934C7.87426 18.6934 7.46935 18.6378 7.08327 18.5289C6.69718 18.4178 6.39585 18.2844 6.17456 18.1244L6.563 17.4266C6.78193 17.5666 7.05502 17.6866 7.37754 17.7844C7.70241 17.8822 8.03199 17.9311 8.36863 17.9311C8.8018 17.9311 9.1149 17.8733 9.30559 17.7577C9.49628 17.6421 9.5928 17.4799 9.5928 17.271C9.5928 17.1176 9.53394 16.9998 9.41859 16.9131C9.30088 16.8287 9.14786 16.7642 8.95717 16.7198C8.76649 16.6776 8.55461 16.6398 8.32155 16.6042C8.08849 16.5709 7.85543 16.5286 7.62237 16.4753C7.3893 16.4242 7.17508 16.3508 6.98203 16.2553C6.78664 16.1597 6.63127 16.0286 6.51591 15.8619C6.3982 15.693 6.3417 15.4685 6.3417 15.1885C6.3417 14.9084 6.42881 14.6373 6.60302 14.4172C6.77722 14.1972 7.02441 14.0283 7.34693 13.9083C7.6671 13.7883 8.04847 13.7305 8.4887 13.7305C8.82534 13.7305 9.16669 13.7682 9.51275 13.846C9.85882 13.9216 10.1413 14.0305 10.3626 14.1705L9.96475 14.8684C9.73169 14.7217 9.48921 14.6217 9.23732 14.5661C8.98542 14.5106 8.73117 14.4839 8.47928 14.4839C8.07201 14.4839 7.76597 14.5461 7.56587 14.6728C7.36577 14.7973 7.26454 14.9595 7.26454 15.1551C7.26454 15.3196 7.32339 15.4463 7.44345 15.5352C7.56351 15.6241 7.71889 15.693 7.90957 15.7419C8.10026 15.7908 8.31213 15.833 8.5452 15.8663C8.77826 15.8997 9.01132 15.9419 9.24438 15.9952C9.47744 16.0464 9.68932 16.1197 9.88 16.2108C10.0707 16.3019 10.2261 16.4309 10.3461 16.5953C10.4662 16.7598 10.525 16.9798 10.525 17.2554C10.525 17.5488 10.4356 17.8022 10.252 18.0155C10.0707 18.2289 9.81409 18.3956 9.48451 18.5156C9.15492 18.6356 8.75943 18.6934 8.30036 18.6934H8.30272Z" fill="#1A2433"/>
<path id="Vector_5" d="M10.9548 14.5015V13.7769H14.2365V14.5015H10.9548ZM13.4597 18.6932C12.9417 18.6932 12.5392 18.5621 12.2543 18.2998C11.9695 18.0375 11.8259 17.6619 11.8259 17.173V12.7168H12.7581V17.1374C12.7581 17.3997 12.8264 17.6019 12.9676 17.742C13.1065 17.882 13.3066 17.9531 13.5656 17.9531C13.8575 17.9531 14.1 17.8775 14.293 17.7242L14.5849 18.3576C14.4413 18.4732 14.2718 18.5599 14.0741 18.6154C13.8763 18.671 13.6715 18.6977 13.4573 18.6977L13.4597 18.6932Z" fill="#1A2433"/>
<path id="Vector_6" d="M16.0333 18.693C15.8521 18.693 15.6967 18.633 15.5672 18.5152C15.4377 18.3951 15.3718 18.244 15.3718 18.0618C15.3718 17.8795 15.4377 17.7284 15.5672 17.6128C15.6967 17.4972 15.8521 17.4395 16.0333 17.4395C16.2146 17.4395 16.3582 17.4972 16.4853 17.6128C16.6125 17.7284 16.6737 17.8795 16.6737 18.0618C16.6737 18.244 16.6101 18.3974 16.4853 18.5152C16.3582 18.6352 16.2076 18.693 16.0333 18.693Z" fill="#1A2433"/>
</g>
<g id="Group_3">
<path id="Vector_7" d="M40.5258 46.2195C40.0009 46.2195 39.5348 46.1128 39.1228 45.8995C38.7108 45.6861 38.3883 45.3927 38.1552 45.0193C37.9222 44.6459 37.8044 44.2192 37.8044 43.7347C37.8044 43.2502 37.9222 42.8235 38.1552 42.4501C38.3883 42.0767 38.7108 41.7855 39.1228 41.5744C39.5348 41.3632 40.0009 41.2588 40.5258 41.2588C40.992 41.2588 41.4087 41.3455 41.7736 41.521C42.1385 41.6944 42.4233 41.9544 42.6234 42.2967L41.9148 42.7279C41.7453 42.4901 41.5405 42.3145 41.298 42.2011C41.0555 42.0878 40.7942 42.0322 40.5164 42.0322C40.1798 42.0322 39.8785 42.1034 39.6124 42.2434C39.3464 42.3834 39.1369 42.5812 38.9815 42.8346C38.8261 43.0879 38.7485 43.3902 38.7485 43.7369C38.7485 44.0836 38.8261 44.3881 38.9815 44.6437C39.1369 44.8993 39.3464 45.0993 39.6124 45.2394C39.8785 45.3794 40.1798 45.4505 40.5164 45.4505C40.7942 45.4505 41.0555 45.3949 41.298 45.2816C41.5405 45.1682 41.7453 44.9927 41.9148 44.7548L42.6234 45.1771C42.4233 45.5127 42.1385 45.7728 41.7736 45.9528C41.4087 46.1328 40.992 46.2239 40.5258 46.2239V46.2195Z" fill="#1A2433"/>
<path id="Vector_8" d="M45.3327 46.2195C44.9514 46.2195 44.6147 46.1595 44.3275 46.0372C44.0403 45.915 43.8167 45.7461 43.6613 45.5283C43.5059 45.3105 43.4282 45.066 43.4282 44.7904C43.4282 44.5148 43.4941 44.2903 43.6283 44.0747C43.7625 43.8592 43.9791 43.6902 44.2781 43.5613C44.577 43.4324 44.9843 43.368 45.4975 43.368H47.129V44.0014H45.5352C45.0691 44.0014 44.756 44.0747 44.5935 44.2214C44.4311 44.3681 44.351 44.5459 44.351 44.7526C44.351 44.9904 44.4523 45.1816 44.6524 45.326C44.8525 45.4705 45.1326 45.5416 45.4881 45.5416C45.8436 45.5416 46.1426 45.4683 46.4062 45.3216C46.6675 45.1749 46.8582 44.9615 46.9736 44.6793L47.1572 45.2838C47.0348 45.5705 46.8182 45.7994 46.5075 45.9661C46.1967 46.135 45.8059 46.2173 45.3327 46.2173V46.2195ZM47.023 46.1639V45.1371L46.9736 44.9437V43.1924C46.9736 42.819 46.8582 42.5301 46.6299 42.3256C46.3992 42.1211 46.0555 42.0189 45.5964 42.0189C45.2927 42.0189 44.9937 42.0656 44.7042 42.1611C44.4123 42.2567 44.1674 42.3834 43.965 42.5412L43.5765 41.8811C43.8426 41.6788 44.1604 41.5255 44.5323 41.4188C44.9043 41.3121 45.2951 41.2588 45.7023 41.2588C46.4086 41.2588 46.9524 41.421 47.3338 41.7455C47.7151 42.07 47.9058 42.5656 47.9058 43.2302V46.1639H47.023Z" fill="#1A2433"/>
<path id="Vector_9" d="M51.7613 46.2191C51.2622 46.2191 50.8172 46.1147 50.4265 45.908C50.0357 45.7013 49.7249 45.4101 49.4989 45.0367C49.2729 44.6633 49.1599 44.2299 49.1599 43.7343C49.1599 43.2387 49.2729 42.8075 49.4989 42.4364C49.7249 42.0674 50.0357 41.7785 50.4265 41.5696C50.8172 41.3606 51.2622 41.2584 51.7613 41.2584C52.1944 41.2584 52.5876 41.3495 52.936 41.534C53.2844 41.7185 53.5645 41.9918 53.7764 42.3586C53.9883 42.7253 54.0919 43.1831 54.0919 43.7343C54.0919 44.2855 53.9906 44.7433 53.7858 45.1101C53.581 45.4768 53.3056 45.7524 52.9548 45.9391C52.604 46.1258 52.2062 46.2191 51.7589 46.2191H51.7613ZM51.8413 45.4501C52.1662 45.4501 52.4581 45.379 52.7194 45.239C52.9807 45.099 53.1879 44.8989 53.3409 44.6389C53.4939 44.3788 53.5692 44.0788 53.5692 43.7365C53.5692 43.3943 53.4939 43.0876 53.3409 42.8342C53.1879 42.5808 52.9807 42.383 52.7194 42.243C52.4581 42.103 52.1638 42.0318 51.8413 42.0318C51.5188 42.0318 51.2174 42.103 50.9585 42.243C50.6995 42.383 50.4924 42.5808 50.337 42.8342C50.1816 43.0876 50.1039 43.3898 50.1039 43.7365C50.1039 44.0832 50.1816 44.3788 50.337 44.6389C50.4924 44.8989 50.6995 45.099 50.9585 45.239C51.2174 45.379 51.5117 45.4501 51.8413 45.4501ZM53.5975 46.1635V44.8523L53.6564 43.7232L53.5598 42.5964V39.3604H54.4921V46.1635H53.5975Z" fill="#1A2433"/>
<path id="Vector_10" d="M58.4643 46.2192C57.9464 46.2192 57.4874 46.1126 57.0848 45.8992C56.6822 45.6858 56.3668 45.3902 56.1337 45.0146C55.9007 44.639 55.783 44.2123 55.783 43.7367C55.783 43.261 55.9007 42.8254 56.1337 42.452C56.3668 42.0786 56.6846 41.7875 57.0848 41.5764C57.4874 41.3652 57.9464 41.2607 58.4643 41.2607C58.9823 41.2607 59.4343 41.3652 59.8392 41.5764C60.2441 41.7875 60.5619 42.0764 60.7902 42.4476C61.0186 42.8187 61.134 43.2477 61.134 43.7367C61.134 44.2256 61.0186 44.6479 60.7902 45.0213C60.5595 45.3947 60.2441 45.688 59.8392 45.9014C59.4343 46.1148 58.9752 46.2215 58.4643 46.2215V46.2192ZM58.4643 45.4502C58.7939 45.4502 59.0905 45.3791 59.3542 45.2391C59.6155 45.0991 59.8227 44.899 59.971 44.639C60.1193 44.379 60.1946 44.0789 60.1946 43.7367C60.1946 43.3944 60.1193 43.0877 59.971 42.8343C59.8227 42.5809 59.6155 42.3831 59.3542 42.2431C59.0929 42.1031 58.7963 42.032 58.4643 42.032C58.1324 42.032 57.8405 42.1031 57.5815 42.2431C57.3226 42.3831 57.1154 42.5809 56.96 42.8343C56.8047 43.0877 56.727 43.3899 56.727 43.7367C56.727 44.0834 56.8047 44.379 56.96 44.639C57.1154 44.899 57.3226 45.0991 57.5815 45.2391C57.8405 45.3791 58.1348 45.4502 58.4643 45.4502Z" fill="#1A2433"/>
<path id="Vector_11" d="M64.592 46.2197C64.1517 46.2197 63.7657 46.1441 63.4314 45.9908C63.0971 45.8374 62.8381 45.6041 62.6545 45.2885C62.4709 44.9729 62.3767 44.5772 62.3767 44.1016V41.3057H63.309V44.0016C63.309 44.4795 63.4314 44.8351 63.6739 45.0751C63.9163 45.3129 64.2577 45.4329 64.6979 45.4329C65.0228 45.4329 65.3029 45.3707 65.5431 45.244C65.7832 45.1195 65.9668 44.9351 66.0963 44.6928C66.2258 44.4506 66.2893 44.1594 66.2893 43.8171V41.3057H67.2216V46.1664H66.3388V44.8551L66.4847 45.204C66.3176 45.5285 66.0633 45.7796 65.7267 45.9552C65.39 46.133 65.011 46.2219 64.5896 46.2219L64.592 46.2197Z" fill="#1A2433"/>
<path id="Vector_12" d="M69.0017 46.1635V41.3028H69.8963V42.623L69.8092 42.2918C69.9504 41.9562 70.1906 41.6984 70.5272 41.5206C70.8638 41.3428 71.2782 41.2539 71.7702 41.2539V42.1074C71.7302 42.1007 71.6949 42.0985 71.6595 42.0985H71.5583C71.0592 42.0985 70.6661 42.2385 70.3742 42.5208C70.0823 42.803 69.9363 43.2075 69.9363 43.7409V46.1613H69.0041L69.0017 46.1635Z" fill="#1A2433"/>
<path id="Vector_13" d="M73.3826 40.3695C73.2014 40.3695 73.0507 40.3139 72.9306 40.205C72.8106 40.0939 72.7517 39.9605 72.7517 39.8005C72.7517 39.6405 72.8106 39.4982 72.9306 39.3871C73.0507 39.276 73.2014 39.2227 73.3826 39.2227C73.5639 39.2227 73.7146 39.276 73.8346 39.3827C73.9547 39.4894 74.0135 39.6227 74.0135 39.7805C74.0135 39.9383 73.9547 40.085 73.8393 40.1984C73.724 40.3117 73.571 40.3673 73.3826 40.3673V40.3695ZM72.9165 46.1636V41.3029H73.8487V46.1636H72.9165Z" fill="#1A2433"/>
<path id="Vector_14" d="M78.239 47.9442V41.3055H79.1336V42.6168L79.0747 43.7436L79.1713 44.8704V47.942H78.239V47.9442ZM80.9675 46.2195C80.539 46.2195 80.1506 46.1261 79.7975 45.9395C79.4443 45.7528 79.1618 45.4772 78.9523 45.1104C78.7428 44.7437 78.6369 44.2859 78.6369 43.7347C78.6369 43.1835 78.7381 42.7257 78.9429 42.3589C79.1477 41.9922 79.4255 41.7166 79.7786 41.5344C80.1318 41.3521 80.5273 41.2588 80.9675 41.2588C81.4713 41.2588 81.9186 41.3632 82.307 41.5699C82.6954 41.7766 83.0038 42.0656 83.2298 42.4367C83.4558 42.8079 83.5688 43.2391 83.5688 43.7347C83.5688 44.2303 83.4558 44.6637 83.2298 45.0371C83.0038 45.4105 82.6954 45.6994 82.307 45.9083C81.9186 46.1173 81.4713 46.2195 80.9675 46.2195ZM80.8898 45.4505C81.2194 45.4505 81.516 45.3794 81.7773 45.2394C82.0386 45.0993 82.2458 44.8993 82.3988 44.6393C82.5518 44.3792 82.6272 44.0792 82.6272 43.7369C82.6272 43.3946 82.5518 43.0879 82.3988 42.8346C82.2458 42.5812 82.0386 42.3834 81.7773 42.2434C81.516 42.1034 81.2194 42.0322 80.8898 42.0322C80.5602 42.0322 80.273 42.1034 80.0117 42.2434C79.7504 42.3834 79.5432 42.5812 79.3902 42.8346C79.2372 43.0879 79.1618 43.3902 79.1618 43.7369C79.1618 44.0836 79.2372 44.3792 79.3902 44.6393C79.5432 44.8993 79.7504 45.0993 80.0117 45.2394C80.273 45.3794 80.5673 45.4505 80.8898 45.4505Z" fill="#1A2433"/>
<path id="Vector_15" d="M87.154 46.2185C86.6031 46.2185 86.1205 46.1118 85.7015 45.8985C85.2848 45.6851 84.9599 45.3917 84.7292 45.0183C84.4985 44.645 84.3855 44.2182 84.3855 43.7337C84.3855 43.2492 84.4961 42.8225 84.7198 42.4491C84.9434 42.0757 85.2495 41.7846 85.6426 41.5734C86.0334 41.3623 86.476 41.2578 86.968 41.2578C87.46 41.2578 87.9073 41.3623 88.2887 41.569C88.6701 41.7757 88.969 42.069 89.188 42.4446C89.4046 42.8203 89.5129 43.2603 89.5129 43.7604C89.5129 43.7982 89.5128 43.8404 89.5081 43.8893C89.5058 43.9382 89.5011 43.9849 89.494 44.0271H85.1129V43.3937H89.0067L88.6277 43.6137C88.6347 43.3025 88.5665 43.0247 88.4229 42.7802C88.2793 42.5358 88.0839 42.3446 87.8343 42.2068C87.5848 42.069 87.2952 42.0001 86.9657 42.0001C86.6361 42.0001 86.3536 42.069 86.1017 42.2068C85.8498 42.3446 85.652 42.538 85.5084 42.7847C85.3648 43.0314 85.2942 43.3159 85.2942 43.6337V43.7804C85.2942 44.1049 85.3742 44.3938 85.532 44.6472C85.6897 44.9006 85.9133 45.0984 86.1982 45.2384C86.483 45.3784 86.8103 45.4495 87.1799 45.4495C87.4836 45.4495 87.7614 45.4006 88.0109 45.3028C88.2604 45.205 88.4794 45.0583 88.6677 44.8628L89.1833 45.4317C88.9502 45.6895 88.6606 45.8851 88.3146 46.0185C87.9685 46.1541 87.5801 46.2207 87.154 46.2207V46.2185Z" fill="#1A2433"/>
<path id="Vector_16" d="M93.5566 41.2584C93.978 41.2584 94.3476 41.3339 94.6678 41.4873C94.988 41.6406 95.2398 41.8718 95.4211 42.1852C95.6024 42.4963 95.6942 42.8919 95.6942 43.3675V46.1635H94.762V43.4676C94.762 42.9964 94.6395 42.643 94.3971 42.403C94.1546 42.1651 93.8132 42.0451 93.373 42.0451C93.0434 42.0451 92.7539 42.1074 92.509 42.2296C92.2618 42.3518 92.0735 42.5319 91.9417 42.7697C91.8098 43.0075 91.7416 43.3053 91.7416 43.6587V46.1613H90.8093V41.3006H91.7039V42.6119L91.5579 42.2629C91.7251 41.9451 91.9864 41.6984 92.3348 41.5206C92.6856 41.3428 93.0929 41.2539 93.559 41.2539L93.5566 41.2584Z" fill="#1A2433"/>
<path id="Vector_17" d="M96.6814 42.0291V41.3046H99.9631V42.0291H96.6814ZM99.1886 46.2186C98.6707 46.2186 98.2681 46.0875 97.9832 45.8252C97.6984 45.5629 97.5548 45.1873 97.5548 44.6984V40.2422H98.487V44.6628C98.487 44.9251 98.5553 45.1273 98.6966 45.2673C98.8354 45.4074 99.0355 45.4785 99.2945 45.4785C99.5864 45.4785 99.8289 45.4029 100.022 45.2496L100.314 45.883C100.17 45.9986 100.001 46.0852 99.803 46.1408C99.6052 46.1964 99.4004 46.223 99.1862 46.223L99.1886 46.2186Z" fill="#1A2433"/>
<path id="Vector_18" d="M101.442 46.1635V41.3028H102.337V42.623L102.25 42.2918C102.391 41.9562 102.631 41.6984 102.968 41.5206C103.304 41.3428 103.719 41.2539 104.211 41.2539V42.1074C104.171 42.1007 104.135 42.0985 104.1 42.0985H103.999C103.5 42.0985 103.107 42.2385 102.815 42.5208C102.523 42.803 102.377 43.2075 102.377 43.7409V46.1613H101.444L101.442 46.1635Z" fill="#1A2433"/>
<path id="Vector_19" d="M107.589 46.2187C107.149 46.2187 106.763 46.1432 106.428 45.9898C106.094 45.8364 105.835 45.6031 105.652 45.2875C105.468 44.9719 105.374 44.5763 105.374 44.1006V41.3047H106.306V44.0006C106.306 44.4785 106.428 44.8341 106.671 45.0741C106.913 45.3119 107.255 45.4319 107.695 45.4319C108.02 45.4319 108.3 45.3697 108.54 45.243C108.78 45.1186 108.964 44.9341 109.093 44.6918C109.223 44.4496 109.286 44.1584 109.286 43.8162V41.3047H110.219V46.1654H109.336V44.8541L109.482 45.203C109.315 45.5275 109.06 45.7787 108.724 45.9543C108.387 46.1321 108.008 46.2209 107.587 46.2209L107.589 46.2187Z" fill="#1A2433"/>
<path id="Vector_20" d="M116.854 46.2195C116.329 46.2195 115.863 46.1128 115.451 45.8995C115.039 45.6861 114.716 45.3927 114.483 45.0193C114.25 44.6459 114.133 44.2192 114.133 43.7347C114.133 43.2502 114.25 42.8235 114.483 42.4501C114.716 42.0767 115.039 41.7855 115.451 41.5744C115.863 41.3632 116.329 41.2588 116.854 41.2588C117.32 41.2588 117.737 41.3455 118.102 41.521C118.467 41.6944 118.751 41.9544 118.952 42.2967L118.243 42.7279C118.073 42.4901 117.869 42.3145 117.626 42.2011C117.384 42.0878 117.122 42.0322 116.845 42.0322C116.508 42.0322 116.207 42.1034 115.941 42.2434C115.675 42.3834 115.465 42.5812 115.31 42.8346C115.154 43.0879 115.077 43.3902 115.077 43.7369C115.077 44.0836 115.154 44.3881 115.31 44.6437C115.465 44.8993 115.675 45.0993 115.941 45.2394C116.207 45.3794 116.508 45.4505 116.845 45.4505C117.122 45.4505 117.384 45.3949 117.626 45.2816C117.869 45.1682 118.073 44.9927 118.243 44.7548L118.952 45.1771C118.751 45.5127 118.467 45.7728 118.102 45.9528C117.737 46.1328 117.32 46.2239 116.854 46.2239V46.2195Z" fill="#1A2433"/>
<path id="Vector_21" d="M122.371 46.2195C121.82 46.2195 121.337 46.1128 120.918 45.8995C120.502 45.6861 120.177 45.3927 119.946 45.0193C119.715 44.6459 119.602 44.2192 119.602 43.7347C119.602 43.2502 119.713 42.8235 119.937 42.4501C120.16 42.0767 120.466 41.7855 120.859 41.5744C121.25 41.3632 121.693 41.2588 122.185 41.2588C122.677 41.2588 123.124 41.3632 123.505 41.5699C123.887 41.7766 124.186 42.07 124.405 42.4456C124.621 42.8212 124.73 43.2613 124.73 43.7614C124.73 43.7991 124.73 43.8414 124.725 43.8903C124.723 43.9392 124.718 43.9858 124.711 44.0281H120.33V43.3946H124.224L123.844 43.6147C123.852 43.3035 123.783 43.0257 123.64 42.7812C123.496 42.5367 123.301 42.3456 123.051 42.2078C122.802 42.07 122.512 42.0011 122.182 42.0011C121.853 42.0011 121.57 42.07 121.318 42.2078C121.067 42.3456 120.869 42.539 120.725 42.7857C120.582 43.0324 120.511 43.3169 120.511 43.6347V43.7814C120.511 44.1059 120.591 44.3948 120.749 44.6482C120.906 44.9015 121.13 45.0993 121.415 45.2394C121.7 45.3794 122.027 45.4505 122.397 45.4505C122.7 45.4505 122.978 45.4016 123.228 45.3038C123.477 45.206 123.696 45.0593 123.885 44.8637L124.4 45.4327C124.167 45.6905 123.877 45.8861 123.531 46.0195C123.185 46.155 122.797 46.2217 122.371 46.2217V46.2195Z" fill="#1A2433"/>
<path id="Vector_22" d="M126.49 40.3695C126.309 40.3695 126.158 40.3139 126.038 40.205C125.918 40.0939 125.859 39.9605 125.859 39.8005C125.859 39.6405 125.918 39.4982 126.038 39.3871C126.158 39.276 126.309 39.2227 126.49 39.2227C126.671 39.2227 126.822 39.276 126.942 39.3827C127.062 39.4894 127.121 39.6227 127.121 39.7805C127.121 39.9383 127.062 40.085 126.947 40.1984C126.831 40.3117 126.678 40.3673 126.49 40.3673V40.3695ZM126.024 46.1636V41.3029H126.956V46.1636H126.024Z" fill="#1A2433"/>
<path id="Vector_23" d="M133.473 46.2191C132.974 46.2191 132.529 46.1147 132.138 45.908C131.748 45.7013 131.437 45.4101 131.211 45.0367C130.985 44.6633 130.872 44.2299 130.872 43.7343C130.872 43.2387 130.985 42.8075 131.211 42.4364C131.437 42.0674 131.748 41.7785 132.138 41.5696C132.529 41.3606 132.974 41.2584 133.473 41.2584C133.906 41.2584 134.299 41.3495 134.648 41.534C134.996 41.7185 135.276 41.9918 135.488 42.3586C135.7 42.7253 135.804 43.1831 135.804 43.7343C135.804 44.2855 135.703 44.7433 135.498 45.1101C135.293 45.4768 135.017 45.7524 134.667 45.9391C134.316 46.1258 133.918 46.2191 133.471 46.2191H133.473ZM133.551 45.4501C133.876 45.4501 134.168 45.379 134.429 45.239C134.69 45.099 134.897 44.8989 135.05 44.6389C135.203 44.3788 135.279 44.0788 135.279 43.7365C135.279 43.3943 135.203 43.0876 135.05 42.8342C134.897 42.5808 134.69 42.383 134.429 42.243C134.168 42.103 133.873 42.0318 133.551 42.0318C133.228 42.0318 132.927 42.103 132.668 42.243C132.409 42.383 132.202 42.5808 132.047 42.8342C131.891 43.0876 131.813 43.3898 131.813 43.7365C131.813 44.0832 131.891 44.3788 132.047 44.6389C132.202 44.8989 132.409 45.099 132.668 45.239C132.927 45.379 133.221 45.4501 133.551 45.4501ZM135.309 46.1635V44.8523L135.368 43.7232L135.272 42.5964V39.3604H136.204V46.1635H135.309Z" fill="#1A2433"/>
<path id="Vector_24" d="M137.969 46.1635V41.3028H138.864V42.623L138.777 42.2918C138.918 41.9562 139.158 41.6984 139.495 41.5206C139.832 41.3428 140.246 41.2539 140.738 41.2539V42.1074C140.698 42.1007 140.663 42.0985 140.627 42.0985H140.526C140.027 42.0985 139.634 42.2385 139.342 42.5208C139.05 42.803 138.904 43.2075 138.904 43.7409V46.1613H137.972L137.969 46.1635Z" fill="#1A2433"/>
<path id="Vector_25" d="M143.01 46.2195C142.628 46.2195 142.292 46.1595 142.005 46.0372C141.717 45.915 141.494 45.7461 141.338 45.5283C141.183 45.3105 141.105 45.066 141.105 44.7904C141.105 44.5148 141.171 44.2903 141.305 44.0747C141.44 43.8592 141.656 43.6902 141.955 43.5613C142.254 43.4324 142.661 43.368 143.175 43.368H144.806V44.0014H143.212C142.746 44.0014 142.433 44.0747 142.271 44.2214C142.108 44.3681 142.028 44.5459 142.028 44.7526C142.028 44.9904 142.129 45.1816 142.329 45.326C142.529 45.4705 142.81 45.5416 143.165 45.5416C143.521 45.5416 143.82 45.4683 144.083 45.3216C144.345 45.1749 144.535 44.9615 144.651 44.6793L144.834 45.2838C144.712 45.5705 144.495 45.7994 144.184 45.9661C143.874 46.135 143.483 46.2173 143.01 46.2173V46.2195ZM144.7 46.1639V45.1371L144.651 44.9437V43.1924C144.651 42.819 144.535 42.5301 144.307 42.3256C144.076 42.1211 143.732 42.0189 143.273 42.0189C142.97 42.0189 142.671 42.0656 142.381 42.1611C142.089 42.2567 141.844 42.3834 141.642 42.5412L141.254 41.8811C141.52 41.6788 141.837 41.5255 142.209 41.4188C142.581 41.3121 142.972 41.2588 143.379 41.2588C144.086 41.2588 144.629 41.421 145.011 41.7455C145.392 42.07 145.583 42.5656 145.583 43.2302V46.1639H144.7Z" fill="#1A2433"/>
<path id="Vector_26" d="M149.45 45.9636C148.951 45.9636 148.506 45.8636 148.115 45.6658C147.722 45.468 147.411 45.1902 147.183 44.8368C146.952 44.4834 146.839 44.0723 146.839 43.6077C146.839 43.1432 146.954 42.7254 147.183 42.3742C147.413 42.0231 147.724 41.7497 148.115 41.5541C148.506 41.3585 148.951 41.2607 149.45 41.2607C149.89 41.2607 150.292 41.3452 150.655 41.5119C151.017 41.6808 151.307 41.9386 151.524 42.2876C151.74 42.6365 151.849 43.0766 151.849 43.6077C151.849 44.1389 151.74 44.5701 151.524 44.919C151.307 45.268 151.017 45.528 150.655 45.7036C150.292 45.877 149.89 45.9659 149.45 45.9659V45.9636ZM149.565 47.9995C149.092 47.9995 148.635 47.9373 148.19 47.8106C147.748 47.6861 147.385 47.5061 147.107 47.2749L147.555 46.5971C147.795 46.7926 148.089 46.946 148.437 47.0594C148.786 47.1727 149.153 47.2283 149.534 47.2283C150.142 47.2283 150.589 47.0927 150.874 46.8238C151.159 46.5548 151.302 46.1459 151.302 45.5947V44.5679L151.399 43.6055L151.349 42.6343V41.3052H152.232V45.5058C152.232 46.3615 152.006 46.9905 151.552 47.395C151.098 47.7995 150.436 47.9995 149.56 47.9995H149.565ZM149.556 45.1924C149.899 45.1924 150.203 45.1257 150.469 44.9902C150.735 44.8568 150.942 44.6701 151.095 44.4301C151.248 44.1923 151.324 43.9167 151.324 43.6055C151.324 43.2944 151.248 43.0188 151.095 42.781C150.942 42.5432 150.735 42.3587 150.469 42.2253C150.203 42.0942 149.899 42.0275 149.556 42.0275C149.212 42.0275 148.906 42.0942 148.637 42.2253C148.369 42.3565 148.157 42.5409 148.007 42.781C147.853 43.0188 147.778 43.2944 147.778 43.6055C147.778 43.9167 147.853 44.1923 148.007 44.4301C148.16 44.6679 148.369 44.8546 148.637 44.9902C148.906 45.1257 149.212 45.1924 149.556 45.1924Z" fill="#1A2433"/>
<path id="Vector_27" d="M154.478 40.3695C154.297 40.3695 154.146 40.3139 154.026 40.205C153.906 40.0939 153.847 39.9605 153.847 39.8005C153.847 39.6405 153.906 39.4982 154.026 39.3871C154.146 39.276 154.297 39.2227 154.478 39.2227C154.66 39.2227 154.81 39.276 154.93 39.3827C155.05 39.4894 155.109 39.6227 155.109 39.7805C155.109 39.9383 155.05 40.085 154.935 40.1984C154.82 40.3117 154.667 40.3673 154.478 40.3673V40.3695ZM154.012 46.1636V41.3029H154.944V46.1636H154.012Z" fill="#1A2433"/>
</g>
<g id="Group_4">
<path id="Vector_28" d="M172.74 18.59V17.9654L175.509 15.4428C175.754 15.2228 175.937 15.0295 176.057 14.8605C176.177 14.6916 176.258 14.5361 176.3 14.3938C176.342 14.2493 176.363 14.1115 176.363 13.976C176.363 13.6448 176.241 13.387 175.994 13.1959C175.747 13.0069 175.389 12.9114 174.916 12.9114C174.553 12.9114 174.226 12.9669 173.934 13.0803C173.642 13.1936 173.39 13.3692 173.176 13.607L172.514 13.067C172.773 12.7558 173.122 12.5158 173.56 12.3469C173.998 12.1779 174.478 12.0957 175.003 12.0957C175.476 12.0957 175.886 12.1668 176.236 12.3113C176.587 12.4558 176.855 12.6602 177.046 12.9292C177.237 13.1981 177.333 13.5159 177.333 13.8826C177.333 14.0915 177.305 14.296 177.246 14.496C177.187 14.6983 177.079 14.9117 176.917 15.1384C176.754 15.3651 176.521 15.6184 176.217 15.8985L173.75 18.1454L173.517 17.7876H177.625V18.5855H172.74V18.59Z" fill="#1A2433"/>
<path id="Vector_29" d="M181.189 18.6635C180.659 18.6635 180.184 18.5346 179.767 18.279C179.35 18.0212 179.018 17.65 178.776 17.161C178.533 16.6721 178.411 16.0787 178.411 15.383C178.411 14.6874 178.533 14.0939 178.776 13.605C179.018 13.116 179.348 12.7426 179.767 12.487C180.184 12.2292 180.659 12.1025 181.189 12.1025C181.718 12.1025 182.187 12.2314 182.606 12.487C183.025 12.7426 183.357 13.116 183.597 13.605C183.837 14.0939 183.957 14.6874 183.957 15.383C183.957 16.0787 183.837 16.6721 183.597 17.161C183.357 17.65 183.027 18.0234 182.606 18.279C182.185 18.5346 181.714 18.6635 181.189 18.6635ZM181.189 17.8478C181.544 17.8478 181.857 17.7567 182.126 17.5722C182.394 17.3877 182.606 17.1144 182.757 16.7476C182.91 16.3809 182.985 15.9253 182.985 15.3808C182.985 14.8363 182.91 14.3806 182.757 14.0139C182.604 13.6472 182.394 13.3716 182.126 13.1894C181.857 13.0049 181.544 12.9138 181.189 12.9138C180.833 12.9138 180.518 13.0049 180.247 13.1894C179.976 13.3738 179.762 13.6472 179.612 14.0139C179.461 14.3806 179.383 14.8363 179.383 15.3808C179.383 15.9253 179.458 16.3809 179.612 16.7476C179.765 17.1144 179.976 17.39 180.247 17.5722C180.518 17.7545 180.833 17.8478 181.189 17.8478Z" fill="#1A2433"/>
<path id="Vector_30" d="M184.782 18.59V17.9654L187.551 15.4428C187.795 15.2228 187.979 15.0295 188.099 14.8605C188.219 14.6916 188.299 14.5361 188.342 14.3938C188.384 14.2493 188.405 14.1115 188.405 13.976C188.405 13.6448 188.283 13.387 188.036 13.1959C187.788 13.0069 187.431 12.9114 186.957 12.9114C186.595 12.9114 186.268 12.9669 185.976 13.0803C185.684 13.1936 185.432 13.3692 185.218 13.607L184.556 13.067C184.815 12.7558 185.164 12.5158 185.601 12.3469C186.039 12.1779 186.52 12.0957 187.044 12.0957C187.518 12.0957 187.927 12.1668 188.278 12.3113C188.629 12.4558 188.897 12.6602 189.088 12.9292C189.279 13.1981 189.375 13.5159 189.375 13.8826C189.375 14.0915 189.347 14.296 189.288 14.496C189.229 14.6983 189.121 14.9117 188.958 15.1384C188.796 15.3651 188.563 15.6184 188.259 15.8985L185.792 18.1454L185.559 17.7876H189.667V18.5855H184.782V18.59Z" fill="#1A2433"/>
<path id="Vector_31" d="M193.231 18.6635C192.701 18.6635 192.225 18.5346 191.809 18.279C191.392 18.0212 191.06 17.65 190.818 17.161C190.575 16.6721 190.453 16.0787 190.453 15.383C190.453 14.6874 190.575 14.0939 190.818 13.605C191.06 13.116 191.39 12.7426 191.809 12.487C192.225 12.2292 192.701 12.1025 193.231 12.1025C193.76 12.1025 194.229 12.2314 194.648 12.487C195.067 12.7426 195.399 13.116 195.639 13.605C195.879 14.0939 195.999 14.6874 195.999 15.383C195.999 16.0787 195.879 16.6721 195.639 17.161C195.399 17.65 195.069 18.0234 194.648 18.279C194.226 18.5346 193.756 18.6635 193.231 18.6635ZM193.231 17.8478C193.586 17.8478 193.899 17.7567 194.168 17.5722C194.436 17.3877 194.648 17.1144 194.798 16.7476C194.951 16.3809 195.027 15.9253 195.027 15.3808C195.027 14.8363 194.951 14.3806 194.798 14.0139C194.645 13.6472 194.436 13.3716 194.168 13.1894C193.899 13.0049 193.586 12.9138 193.231 12.9138C192.875 12.9138 192.56 13.0049 192.289 13.1894C192.018 13.3738 191.804 13.6472 191.653 14.0139C191.503 14.3806 191.425 14.8363 191.425 15.3808C191.425 15.9253 191.5 16.3809 191.653 16.7476C191.806 17.1144 192.018 17.39 192.289 17.5722C192.56 17.7545 192.875 17.8478 193.231 17.8478Z" fill="#1A2433"/>
</g>
<g id="Group_5">
<path id="Vector_32" d="M58.0181 33.7225L74.5325 0.291016H78.2991L94.8135 33.7225H90.7879L75.6154 2.34464H77.1644L61.9919 33.7225H58.0181Z" fill="#1A2433"/>
<path id="Vector_33" d="M124.725 8.31243C123.111 5.80096 120.846 3.83401 117.943 2.41603C115.033 0.998054 111.655 0.289062 107.799 0.289062H97.2925V3.3495H107.592C110.796 3.3495 113.574 3.92959 115.928 5.09197C118.287 6.24992 120.114 7.85014 121.423 9.88821C122.732 11.9263 123.388 14.3022 123.388 17.007C123.388 19.7118 122.732 22.0455 121.423 24.0969C120.114 26.1528 118.287 27.7597 115.928 28.9243C113.576 30.0822 110.796 30.6667 107.592 30.6667H97.2925V33.7205H107.799C111.653 33.7205 115.033 33.0115 117.943 31.5935C120.846 30.1822 123.113 28.2153 124.725 25.6971C126.345 23.1812 127.153 20.2852 127.153 17.007C127.153 13.7288 126.345 10.8283 124.725 8.31021V8.31243Z" fill="#1A2433"/>
<path id="Vector_34" d="M148.622 34.0093C145.903 34.0093 143.384 33.587 141.063 32.7425C138.742 31.8979 136.727 30.7044 135.025 29.1597C133.323 27.6151 131.997 25.817 131.051 23.7634C130.105 21.7098 129.631 19.4583 129.631 17.0046C129.631 14.551 130.105 12.2995 131.051 10.2459C131.997 8.19228 133.323 6.39424 135.025 4.84958C136.727 3.30491 138.73 2.11141 141.037 1.26684C143.342 0.422278 145.87 0 148.622 0C151.374 0 153.851 0.422278 156.156 1.26684C158.46 2.11141 160.464 3.29602 162.168 4.82513C163.87 6.35424 165.196 8.15227 166.142 10.2215C167.088 12.2906 167.562 14.551 167.562 17.0024C167.562 19.4539 167.088 21.7142 166.142 23.7834C165.196 25.8526 163.873 27.6528 162.168 29.1797C160.466 30.7088 158.46 31.8934 156.156 32.738C153.851 33.5826 151.339 34.0049 148.622 34.0049V34.0093ZM148.622 30.8555C150.791 30.8555 152.794 30.5132 154.635 29.8287C156.476 29.1442 158.074 28.1729 159.435 26.9149C160.793 25.657 161.85 24.1923 162.608 22.521C163.364 20.8496 163.743 19.0116 163.743 17.0046C163.743 14.9977 163.364 13.1597 162.608 11.4883C161.85 9.81696 160.793 8.3523 159.435 7.09434C158.074 5.83638 156.476 4.86514 154.635 4.1806C152.794 3.49605 150.791 3.15378 148.622 3.15378C146.454 3.15378 144.441 3.49605 142.584 4.1806C140.726 4.86514 139.119 5.83638 137.758 7.09434C136.4 8.3523 135.333 9.81696 134.559 11.4883C133.784 13.1597 133.398 14.9977 133.398 17.0046C133.398 19.0116 133.784 20.8096 134.559 22.4965C135.333 24.1834 136.4 25.657 137.758 26.9149C139.116 28.1729 140.726 29.1442 142.584 29.8287C144.441 30.5132 146.454 30.8555 148.622 30.8555Z" fill="#1A2433"/>
<path id="Vector_35" d="M28.1063 25.6991C29.7213 28.2106 31.986 30.1775 34.8887 31.5955C37.7984 33.0135 41.1766 33.7225 45.0327 33.7225H55.5393V30.662H45.2399C42.0359 30.662 39.258 30.0819 36.9038 28.9195C34.545 27.7616 32.7181 26.1614 31.4092 24.1233C30.1003 22.0852 29.4435 19.7093 29.4435 17.0045C29.4435 14.2997 30.1003 11.966 31.4092 9.91461C32.7181 7.85876 34.545 6.25186 36.9038 5.08725C39.2556 3.92931 42.0359 3.34478 45.2399 3.34478H55.5393V0.291016H45.0327C41.179 0.291016 37.7984 1.00001 34.8887 2.41799C31.986 3.8293 29.7189 5.79625 28.1063 8.31438C26.4867 10.8303 25.6792 13.7263 25.6792 17.0045C25.6792 20.2828 26.4867 23.1832 28.1063 25.7013V25.6991Z" fill="#1A2433"/>
</g>
</g>
</g>
</svg>
